<svg width="21" height="21" viewBox="0 0 21 21" fill="none" xmlns="http://www.w3.org/2000/svg">
<path d="M12.3095 9.75775H11.3095V8.75775C11.3095 8.49254 11.2042 8.23818 11.0166 8.05064C10.8291 7.86311 10.5747 7.75775 10.3095 7.75775C10.0443 7.75775 9.78994 7.86311 9.6024 8.05064C9.41487 8.23818 9.30951 8.49254 9.30951 8.75775V9.75775H8.30951C8.04429 9.75775 7.78994 9.86311 7.6024 10.0506C7.41487 10.2382 7.30951 10.4925 7.30951 10.7578C7.30951 11.023 7.41487 11.2773 7.6024 11.4649C7.78994 11.6524 8.04429 11.7578 8.30951 11.7578H9.30951V12.7578C9.30951 13.023 9.41487 13.2773 9.6024 13.4649C9.78994 13.6524 10.0443 13.7578 10.3095 13.7578C10.5747 13.7578 10.8291 13.6524 11.0166 13.4649C11.2042 13.2773 11.3095 13.023 11.3095 12.7578V11.7578H12.3095C12.5747 11.7578 12.8291 11.6524 13.0166 11.4649C13.2042 11.2773 13.3095 11.023 13.3095 10.7578C13.3095 10.4925 13.2042 10.2382 13.0166 10.0506C12.8291 9.86311 12.5747 9.75775 12.3095 9.75775ZM20.0195 10.0478L17.6695 7.75775V4.39775C17.6695 4.13253 17.5642 3.87818 17.3766 3.69064C17.1891 3.50311 16.9347 3.39775 16.6695 3.39775H13.3595L11.0195 1.04775C10.9265 0.954023 10.8159 0.879629 10.6941 0.82886C10.5722 0.778091 10.4415 0.751953 10.3095 0.751953C10.1775 0.751953 10.0468 0.778091 9.92493 0.82886C9.80307 0.879629 9.69247 0.954023 9.59951 1.04775L7.30951 3.39775H3.94951C3.68429 3.39775 3.42994 3.50311 3.2424 3.69064C3.05487 3.87818 2.94951 4.13253 2.94951 4.39775V7.75775L0.599509 10.0478C0.505781 10.1407 0.431387 10.2513 0.380618 10.3732C0.329849 10.495 0.303711 10.6257 0.303711 10.7578C0.303711 10.8898 0.329849 11.0205 0.380618 11.1423C0.431387 11.2642 0.505781 11.3748 0.599509 11.4678L2.94951 13.8078V17.1178C2.94951 17.383 3.05487 17.6373 3.2424 17.8249C3.42994 18.0124 3.68429 18.1178 3.94951 18.1178H7.30951L9.64951 20.4678C9.74247 20.5615 9.85307 20.6359 9.97493 20.6866C10.0968 20.7374 10.2275 20.7635 10.3595 20.7635C10.4915 20.7635 10.6222 20.7374 10.7441 20.6866C10.8659 20.6359 10.9765 20.5615 11.0695 20.4678L13.4095 18.1178H16.7195C16.9847 18.1178 17.2391 18.0124 17.4266 17.8249C17.6142 17.6373 17.7195 17.383 17.7195 17.1178V13.8078L20.0695 11.4678C20.16 11.3715 20.2306 11.2583 20.2771 11.1347C20.3237 11.011 20.3452 10.8794 20.3406 10.7473C20.3359 10.6153 20.3052 10.4855 20.25 10.3654C20.1949 10.2453 20.1166 10.1374 20.0195 10.0478ZM15.9695 12.6878C15.875 12.7804 15.7999 12.8908 15.7484 13.0127C15.6969 13.1346 15.6701 13.2654 15.6695 13.3978V16.1178H12.9495C12.8172 16.1183 12.6863 16.1451 12.5644 16.1966C12.4426 16.2481 12.3321 16.3233 12.2395 16.4178L10.3095 18.3478L8.37951 16.4178C8.28689 16.3233 8.17645 16.2481 8.05457 16.1966C7.9327 16.1451 7.80182 16.1183 7.66951 16.1178H4.94951V13.3978C4.94896 13.2654 4.92216 13.1346 4.87066 13.0127C4.81917 12.8908 4.744 12.7804 4.64951 12.6878L2.71951 10.7578L4.64951 8.82775C4.744 8.73514 4.81917 8.62469 4.87066 8.50282C4.92216 8.38094 4.94896 8.25006 4.94951 8.11775V5.39775H7.66951C7.80182 5.3972 7.9327 5.3704 8.05457 5.31891C8.17645 5.26741 8.28689 5.19224 8.37951 5.09775L10.3095 3.16775L12.2395 5.09775C12.3321 5.19224 12.4426 5.26741 12.5644 5.31891C12.6863 5.3704 12.8172 5.3972 12.9495 5.39775H15.6695V8.11775C15.6701 8.25006 15.6969 8.38094 15.7484 8.50282C15.7999 8.62469 15.875 8.73514 15.9695 8.82775L17.8995 10.7578L15.9695 12.6878Z" fill="#444444"/>
</svg>
