<svg width="16" height="17" viewBox="0 0 16 17" fill="none" xmlns="http://www.w3.org/2000/svg">
<path d="M7.93293 8.75635C6.55615 8.75635 5.43628 7.58659 5.43628 6.14746C5.43628 4.70833 6.55615 3.53857 7.93293 3.53857C9.3097 3.53857 10.4296 4.70833 10.4296 6.14746C10.4296 7.58659 9.3097 8.75635 7.93293 8.75635ZM7.93293 5.15728C7.45156 5.15728 7.05748 5.60124 7.05748 6.14497C7.05748 6.68869 7.44906 7.13265 7.93293 7.13265C8.41679 7.13265 8.80838 6.68869 8.80838 6.14497C8.80838 5.60124 8.41679 5.15728 7.93293 5.15728Z" fill="#444444"/>
<path d="M5.73296 10.5617C5.6282 10.5617 5.52095 10.5417 5.41869 10.4968C5.00716 10.3222 4.81261 9.84584 4.9872 9.4343C5.49352 8.23461 6.66328 7.46143 7.96522 7.46143C9.26717 7.46143 10.3846 8.20468 10.9083 9.35698C11.0929 9.76353 10.9133 10.2449 10.5068 10.4295C10.1002 10.614 9.61885 10.4345 9.43428 10.0279C9.17239 9.45425 8.59625 9.08263 7.96772 9.08263C7.33919 9.08263 6.73561 9.46922 6.4837 10.0678C6.354 10.3771 6.05221 10.5617 5.73794 10.5617H5.73296Z" fill="#444444"/>
<path d="M7.99019 16.3109C6.9626 16.3109 5.95247 15.9592 4.98972 15.2684C4.15668 14.6698 3.39347 13.8417 2.72004 12.8066C2.10399 11.8589 1.59019 10.7689 1.23602 9.65153C0.87437 8.52417 0.684814 7.39183 0.684814 6.3792C0.684814 3.01209 2.28357 0.924485 5.18926 0.500479C5.25411 0.492996 5.31895 0.485514 5.3863 0.478031C5.48357 0.468055 5.6382 0.45309 5.83275 0.435631C6.17694 0.405701 6.7082 0.365794 7.29682 0.338359C8.82324 0.268522 9.96806 0.323394 10.7038 0.505467C13.622 0.951921 15.2956 3.08941 15.2956 6.37671C15.2956 7.38933 15.106 8.52168 14.7469 9.65153C14.3927 10.7689 13.8789 11.8589 13.2628 12.8066C12.5894 13.8417 11.8262 14.6698 10.9932 15.2684C10.0304 15.9617 9.02028 16.3109 7.99269 16.3109H7.99019ZM5.40874 2.10671C4.39362 2.25886 3.62293 2.67788 3.11412 3.3513C2.57788 4.06463 2.30601 5.08224 2.30601 6.3792C2.30601 8.12012 2.98442 10.2451 4.07686 11.9237C4.63306 12.7767 5.27406 13.4776 5.93501 13.9539C6.61591 14.4453 7.30929 14.6922 7.99019 14.6922C8.6711 14.6922 9.36198 14.4428 10.0454 13.9539C10.7063 13.4801 11.3473 12.7767 11.9035 11.9237C12.996 10.2451 13.6744 8.12012 13.6744 6.3792C13.6744 5.10469 13.385 4.08957 12.8114 3.36626C12.2702 2.68037 11.467 2.25636 10.427 2.10422C10.3995 2.09923 10.3696 2.09424 10.3422 2.08676C9.17242 1.78497 6.39892 1.99697 5.40874 2.10671Z" fill="#444444"/>
</svg>
