<svg width="18" height="17" viewBox="0 0 18 17" fill="none" xmlns="http://www.w3.org/2000/svg">
<path d="M7.67735 8.22134H1.794C1.31614 8.22134 0.928223 7.83343 0.928223 7.35557V1.47222C0.928223 0.994358 1.31614 0.606445 1.794 0.606445H7.67735C8.15521 0.606445 8.54312 0.994358 8.54312 1.47222V7.35557C8.54312 7.83343 8.15521 8.22134 7.67735 8.22134ZM2.66259 6.48698H6.81157V2.34081H2.66259V6.48979V6.48698Z" fill="#444444"/>
<path d="M7.67735 16.6062H1.794C1.31614 16.6062 0.928223 16.2183 0.928223 15.7405V9.85992C0.928223 9.38205 1.31614 8.99414 1.794 8.99414H7.67735C8.15521 8.99414 8.54312 9.38205 8.54312 9.85992V15.7405C8.54312 16.2183 8.15521 16.6062 7.67735 16.6062ZM2.66259 14.8719H6.81157V10.7229H2.66259V14.8719Z" fill="#444444"/>
<path d="M16.186 8.22134H10.3055C9.82761 8.22134 9.4397 7.83343 9.4397 7.35557V1.47222C9.4397 0.994358 9.82761 0.606445 10.3055 0.606445H16.186C16.6639 0.606445 17.0518 0.994358 17.0518 1.47222V7.35557C17.0518 7.83343 16.6639 8.22134 16.186 8.22134ZM11.1712 6.48698H15.3202V2.34081H11.1712V6.48979V6.48698Z" fill="#444444"/>
<path d="M16.186 16.6062H10.3055C9.82761 16.6062 9.4397 16.2183 9.4397 15.7405V9.85992C9.4397 9.38205 9.82761 8.99414 10.3055 8.99414H16.186C16.6639 8.99414 17.0518 9.38205 17.0518 9.85992V15.7405C17.0518 16.2183 16.6639 16.6062 16.186 16.6062ZM11.1712 14.8719H15.3202V10.7229H11.1712V14.8719Z" fill="#444444"/>
</svg>
