<svg width="179" height="170" viewBox="0 0 179 170" fill="none" xmlns="http://www.w3.org/2000/svg">
<path opacity="0.5" d="M11.1343 38.8101C-5.24142 65.8126 -2.62828 105.184 14.9669 131.141C32.7363 157.098 65.4877 169.642 98.2391 169.642C131.165 169.642 164.09 157.273 174.891 135.322C185.518 113.372 174.02 82.0141 157.645 55.0116C141.095 27.8349 119.667 5.01342 91.2707 1.0066C62.8745 -3.00022 27.51 11.8076 11.1343 38.8101Z" fill="#FDF5EF"/>
<path fill-rule="evenodd" clip-rule="evenodd" d="M95.6516 44.5816C100.242 40.1485 106.389 37.6955 112.77 37.7509C119.151 37.8064 125.255 40.3658 129.767 44.878C134.279 49.3902 136.839 55.4942 136.894 61.8751C136.95 68.2561 134.497 74.4036 130.064 78.9936L130.05 79.0074L116.117 92.9404C116.117 92.9404 116.117 92.9404 116.117 92.9404C113.65 95.4084 110.681 97.3171 107.411 98.5368C104.141 99.7564 100.648 100.259 97.1668 100.009C93.6859 99.7601 90.2994 98.7651 87.2369 97.0919C84.1744 95.4188 81.5076 93.1065 79.4173 90.312C79.0486 89.8191 79.1493 89.1206 79.6423 88.7518C80.1352 88.3831 80.8337 88.4838 81.2025 88.9767C83.1013 91.5152 85.5238 93.6157 88.3058 95.1356C91.0877 96.6555 94.164 97.5593 97.326 97.7858C100.488 98.0122 103.662 97.556 106.632 96.448C109.602 95.3401 112.299 93.6063 114.54 91.3643L128.467 77.4377C132.49 73.269 134.715 67.6877 134.665 61.8945C134.615 56.0981 132.29 50.5533 128.191 46.4544C124.092 42.3555 118.547 40.0305 112.751 39.9801C106.957 39.9298 101.375 42.156 97.2062 46.1794L89.2235 54.1157C88.7869 54.5497 88.0811 54.5477 87.6471 54.1111C87.2131 53.6746 87.2152 52.9688 87.6517 52.5348L95.6401 44.5929L95.6516 44.5816ZM71.7864 71.4632C75.0561 70.2436 78.5498 69.7413 82.0306 69.9906C85.5115 70.2399 88.898 71.2349 91.9605 72.9081C95.0229 74.5812 97.6898 76.8935 99.7801 79.6879C100.149 80.1809 100.048 80.8794 99.5551 81.2482C99.0622 81.6169 98.3636 81.5162 97.9949 81.0233C96.0961 78.4848 93.6736 76.3843 90.8916 74.8644C88.1096 73.3445 85.0334 72.4407 81.8714 72.2142C78.7094 71.9878 75.5357 72.444 72.5655 73.552C69.5954 74.6599 66.8983 76.3937 64.6571 78.6357L50.7306 92.5622C46.7078 96.7309 44.482 102.312 44.5324 108.105C44.5828 113.902 46.9078 119.447 51.0066 123.546C55.1055 127.644 60.6503 129.969 66.4468 130.02C72.2399 130.07 77.8212 127.844 81.9899 123.822L89.9252 115.887C90.3605 115.451 91.0662 115.451 91.5015 115.887C91.9368 116.322 91.9368 117.028 91.5015 117.463L83.5596 125.405L83.5458 125.418C78.9559 129.852 72.8084 132.305 66.4274 132.249C60.0464 132.194 53.9425 129.634 49.4303 125.122C44.9181 120.61 42.3586 114.506 42.3032 108.125C42.2477 101.744 44.7007 95.5964 49.1338 91.0064L49.1474 90.9926L63.0804 77.0596C63.0805 77.0596 63.0804 77.0596 63.0804 77.0596C65.5476 74.5916 68.5168 72.6829 71.7864 71.4632Z" fill="#FF7E1D"/>
<path d="M116.117 92.9404L130.05 79.0074L130.064 78.9936C134.497 74.4036 136.95 68.2561 136.894 61.8751C136.839 55.4942 134.279 49.3902 129.767 44.878C125.255 40.3658 119.151 37.8064 112.77 37.7509C106.389 37.6955 100.242 40.1485 95.6516 44.5816L95.6401 44.5929L87.6517 52.5348C87.2152 52.9688 87.2131 53.6746 87.6471 54.1111C88.0811 54.5477 88.7869 54.5497 89.2235 54.1157L97.2062 46.1794C101.375 42.156 106.957 39.9298 112.751 39.9801C118.547 40.0305 124.092 42.3555 128.191 46.4544C132.29 50.5533 134.615 56.0981 134.665 61.8945C134.715 67.6877 132.49 73.269 128.467 77.4377L114.54 91.3643C112.299 93.6063 109.602 95.3401 106.632 96.448C103.662 97.556 100.488 98.0122 97.326 97.7858C94.164 97.5593 91.0877 96.6555 88.3058 95.1356C85.5238 93.6157 83.1013 91.5152 81.2025 88.9767C80.8337 88.4838 80.1352 88.3831 79.6423 88.7518C79.1493 89.1206 79.0486 89.8191 79.4173 90.312C81.5076 93.1065 84.1744 95.4188 87.2369 97.0919C90.2994 98.7651 93.6859 99.7601 97.1668 100.009C100.648 100.259 104.141 99.7564 107.411 98.5368C110.681 97.3171 113.65 95.4084 116.117 92.9404ZM116.117 92.9404C116.117 92.9404 116.117 92.9404 116.117 92.9404ZM63.0804 77.0596L49.1474 90.9926L49.1338 91.0064C44.7007 95.5964 42.2477 101.744 42.3032 108.125C42.3586 114.506 44.9181 120.61 49.4303 125.122C53.9425 129.634 60.0464 132.194 66.4274 132.249C72.8084 132.305 78.9559 129.852 83.5458 125.418L83.5596 125.405L91.5015 117.463C91.9368 117.028 91.9368 116.322 91.5015 115.887C91.0662 115.451 90.3605 115.451 89.9252 115.887L81.9899 123.822C77.8212 127.844 72.2399 130.07 66.4468 130.02C60.6503 129.969 55.1055 127.644 51.0066 123.546C46.9078 119.447 44.5828 113.902 44.5324 108.105C44.482 102.312 46.7078 96.7309 50.7306 92.5622L64.6571 78.6357C66.8983 76.3937 69.5954 74.6599 72.5655 73.552C75.5357 72.444 78.7094 71.9878 81.8714 72.2142C85.0334 72.4407 88.1096 73.3445 90.8916 74.8644C93.6736 76.3843 96.0961 78.4848 97.9949 81.0233C98.3636 81.5162 99.0622 81.6169 99.5551 81.2482C100.048 80.8794 100.149 80.1809 99.7801 79.6879C97.6898 76.8935 95.0229 74.5812 91.9605 72.9081C88.898 71.2349 85.5115 70.2399 82.0306 69.9906C78.5498 69.7413 75.0561 70.2436 71.7864 71.4632C68.5168 72.6829 65.5476 74.5916 63.0804 77.0596ZM63.0804 77.0596C63.0804 77.0596 63.0805 77.0596 63.0804 77.0596Z" stroke="#FF7E1D" stroke-width="4" stroke-linecap="round" stroke-linejoin="round"/>
</svg>
