<svg width="15" height="11" viewBox="0 0 15 11" fill="none" xmlns="http://www.w3.org/2000/svg">
<path d="M13.0365 1.56583C12.9591 1.48773 12.8669 1.42573 12.7653 1.38342C12.6638 1.34112 12.5549 1.31934 12.4449 1.31934C12.3349 1.31934 12.2259 1.34112 12.1244 1.38342C12.0228 1.42573 11.9307 1.48773 11.8532 1.56583L5.64486 7.7825L3.03653 5.16583C2.9561 5.08814 2.86114 5.02704 2.7571 4.98604C2.65305 4.94503 2.54195 4.92493 2.43013 4.92686C2.31832 4.92879 2.20797 4.95273 2.10541 4.99731C2.00284 5.04189 1.91006 5.10623 1.83236 5.18667C1.75466 5.2671 1.69357 5.36205 1.65257 5.4661C1.61156 5.57015 1.59145 5.68125 1.59339 5.79307C1.59532 5.90488 1.61926 6.01522 1.66384 6.11779C1.70842 6.22035 1.77276 6.31314 1.8532 6.39083L5.0532 9.59083C5.13067 9.66894 5.22283 9.73094 5.32438 9.77324C5.42593 9.81555 5.53485 9.83733 5.64486 9.83733C5.75487 9.83733 5.8638 9.81555 5.96534 9.77324C6.06689 9.73094 6.15906 9.66894 6.23653 9.59083L13.0365 2.79083C13.1211 2.7128 13.1886 2.61809 13.2348 2.51267C13.281 2.40726 13.3048 2.29342 13.3048 2.17833C13.3048 2.06325 13.281 1.94941 13.2348 1.844C13.1886 1.73858 13.1211 1.64387 13.0365 1.56583Z" fill="white" stroke="white" stroke-width="1.5"/>
</svg>
