<svg width="101" height="100" viewBox="0 0 101 100" fill="none" xmlns="http://www.w3.org/2000/svg">
<path fill-rule="evenodd" clip-rule="evenodd" d="M25.8514 2.79956e-07H75.6311C79.5474 -1.55837e-05 82.6295 -2.81093e-05 85.1093 0.202574C87.6381 0.409191 89.7454 0.838098 91.6588 1.81302C94.7887 3.4078 97.3334 5.95252 98.9282 9.08245C99.9031 10.9958 100.332 13.1031 100.539 15.6319C100.741 18.1116 100.741 21.1938 100.741 25.1101V74.8899C100.741 78.8062 100.741 81.8883 100.539 84.368C100.332 86.8969 99.9031 89.0041 98.9282 90.9175C97.3334 94.0474 94.7887 96.5921 91.6588 98.1869C90.9867 98.5294 90.2879 98.806 89.5503 99.0294C86.3436 100.001 82.1597 100.001 75.9963 100C75.8412 100 75.6848 99.9999 75.5272 99.9999H25.9552C25.7976 99.9999 25.6412 100 25.4861 100C19.3227 100.001 15.1388 100.001 11.9321 99.0294C11.1945 98.806 10.4957 98.5294 9.82367 98.1869C6.69373 96.5921 4.14902 94.0474 2.55424 90.9175C1.57931 89.0041 1.1504 86.8969 0.943785 84.368C0.741183 81.8883 0.741195 78.8061 0.741211 74.8898V25.1101C0.741195 21.1938 0.741183 18.1117 0.943785 15.6319C1.1504 13.1031 1.57931 10.9958 2.55424 9.08245C4.14902 5.95252 6.69373 3.4078 9.82367 1.81302C11.7371 0.838098 13.8443 0.409191 16.3731 0.202574C18.8529 -2.81093e-05 21.935 -1.55837e-05 25.8514 2.79956e-07ZM16.7534 4.85633C14.5133 5.03935 13.0889 5.38972 11.9435 5.97336C9.69211 7.12048 7.8617 8.95089 6.71458 11.2022C6.13094 12.3477 5.78056 13.772 5.59754 16.0122C5.41229 18.2795 5.41047 21.1712 5.41047 25.214V74.7859C5.41047 78.8287 5.41229 81.7204 5.59754 83.9878C5.78056 86.2279 6.13094 87.6522 6.71458 88.7977C7.56825 90.4731 8.80034 91.9154 10.3027 93.0165C10.3432 91.2887 10.4421 89.9475 10.6855 88.7237C12.3742 80.2342 19.0105 73.5979 27.5 71.9092C29.5696 71.4976 31.9958 71.4977 36.1125 71.498H65.3699C69.4867 71.4977 71.9128 71.4976 73.9824 71.9092C82.4719 73.5979 89.1083 80.2342 90.7969 88.7237C91.0404 89.9475 91.1393 91.2887 91.1797 93.0165C92.6821 91.9154 93.9142 90.4731 94.7678 88.7977C95.3515 87.6522 95.7019 86.2279 95.8849 83.9878C96.0701 81.7204 96.072 78.8287 96.072 74.7859V25.214C96.072 21.1712 96.0701 18.2795 95.8849 16.0122C95.7019 13.772 95.3515 12.3477 94.7678 11.2022C93.6207 8.95089 91.7903 7.12048 89.539 5.97336C88.3935 5.38972 86.9692 5.03935 84.729 4.85633C82.4617 4.67107 79.57 4.66926 75.5272 4.66926H25.9552C21.9124 4.66926 19.0207 4.67107 16.7534 4.85633ZM86.534 94.935C86.5182 92.25 86.4546 90.827 86.2174 89.6346C84.8972 82.9974 79.7088 77.809 73.0715 76.4888C71.5121 76.1786 69.5823 76.1673 65.0408 76.1673H36.4416C31.9001 76.1673 29.9703 76.1786 28.4109 76.4888C21.7737 77.809 16.5853 82.9974 15.265 89.6346C15.0279 90.827 14.9643 92.25 14.9485 94.935C17.3012 95.3146 20.58 95.3307 25.9552 95.3307H75.5272C80.9024 95.3307 84.1812 95.3146 86.534 94.935ZM50.7412 21.3521C41.5006 21.3521 34.0097 28.8431 34.0097 38.0836C34.0097 47.3242 41.5006 54.8151 50.7412 54.8151C59.9818 54.8151 67.4727 47.3242 67.4727 38.0836C67.4727 28.8431 59.9818 21.3521 50.7412 21.3521ZM29.3404 38.0836C29.3404 26.2643 38.9219 16.6829 50.7412 16.6829C62.5605 16.6829 72.142 26.2643 72.142 38.0836C72.142 49.903 62.5605 59.4844 50.7412 59.4844C38.9219 59.4844 29.3404 49.903 29.3404 38.0836Z" fill="#FF7E1D"/>
</svg>
