<svg width="101" height="100" viewBox="0 0 101 100" fill="none" xmlns="http://www.w3.org/2000/svg">
<path fill-rule="evenodd" clip-rule="evenodd" d="M46.6201 0.144501C47.592 -0.0481669 48.5938 -0.0481669 49.5657 0.144501C50.6758 0.364575 51.6885 0.908183 52.8761 1.54571C52.9538 1.58746 53.0324 1.62962 53.1117 1.67212L51.9878 3.77108L53.1117 1.67212L90.2045 21.5348C90.2906 21.5809 90.3761 21.6265 90.4607 21.6717C91.7076 22.3375 92.7838 22.9122 93.6001 23.7661C94.3187 24.5176 94.8677 25.414 95.2049 26.3978C95.5903 27.5222 95.5887 28.7357 95.5869 30.1038C95.5868 30.1988 95.5866 30.2947 95.5866 30.3913L95.5866 52.4157C95.5866 53.7307 94.5206 54.7967 93.2057 54.7967C91.8907 54.7967 90.8247 53.7307 90.8247 52.4157L90.8247 30.3913C90.8247 30.1818 90.8243 29.9917 90.8235 29.8189L71.816 39.9972C71.789 40.0123 71.7617 40.027 71.7341 40.041L50.4737 51.4257L50.4738 94.3381C50.5947 94.2739 50.7244 94.2046 50.8638 94.13L56.994 90.8473C58.1532 90.2266 59.5961 90.6631 60.2169 91.8223C60.8376 92.9816 60.4011 94.4245 59.2419 95.0452L53.1117 98.3279C53.0324 98.3704 52.9539 98.4125 52.8761 98.4543C51.6885 99.0918 50.6758 99.6354 49.5656 99.8555C48.5938 100.048 47.592 100.048 46.6201 99.8555C45.51 99.6354 44.4973 99.0918 43.3097 98.4543C43.2319 98.4125 43.1534 98.3704 43.074 98.3279L5.98131 78.4652C5.89517 78.4191 5.80979 78.3735 5.7252 78.3283C4.47826 77.6625 3.40201 77.0878 2.58562 76.2339C1.86712 75.4824 1.31807 74.586 0.980846 73.6022C0.595411 72.4778 0.597044 71.2643 0.598884 69.8963C0.599012 69.8012 0.599141 69.7053 0.599141 69.6087V30.3913C0.599141 30.2947 0.599012 30.1988 0.598884 30.1037C0.597043 28.7357 0.595411 27.5222 0.980846 26.3978C1.31807 25.414 1.86712 24.5176 2.58562 23.7661C3.40197 22.9122 4.47813 22.3376 5.725 21.6718C5.80965 21.6266 5.89509 21.5809 5.9813 21.5348L24.3794 11.6828C24.4001 11.6714 24.4208 11.6603 24.4417 11.6495L43.074 1.67212C43.1534 1.62964 43.2319 1.58749 43.3096 1.54575C44.4973 0.908213 45.51 0.364577 46.6201 0.144501ZM25.5365 16.4649L8.22923 25.7327C8.15843 25.7706 8.09005 25.8073 8.02401 25.8428L48.0927 47.299L65.6054 37.9212L25.5365 16.4649ZM70.6491 35.2204L30.5802 13.7641L45.322 5.87004L44.5512 4.4306L45.322 5.87004C46.874 5.03893 47.2235 4.87946 47.5461 4.81551C47.9066 4.74404 48.2791 4.74404 48.6397 4.81551C48.9623 4.87946 49.3117 5.03891 50.8638 5.87004L87.9565 25.7327C88.0273 25.7706 88.0956 25.8072 88.1616 25.8427L70.6491 35.2204ZM45.7118 51.4257L5.3623 29.8191C5.36145 29.9918 5.36105 30.1818 5.36105 30.3913V69.6087C5.36105 71.4332 5.39157 71.7842 5.48545 72.0581C5.59597 72.3805 5.77886 72.6831 6.02753 72.9432C6.249 73.1748 6.58239 73.3854 8.22923 74.2673L45.322 94.13C45.4614 94.2046 45.5911 94.2738 45.7119 94.3381L45.7118 51.4257ZM99.9325 67.6735C100.845 68.6203 100.817 70.1275 99.8705 71.0401L79.8204 90.3659C78.8982 91.2548 77.438 91.2548 76.5157 90.3659L66.4907 80.703C65.5439 79.7905 65.5162 78.2832 66.4287 77.3364C67.3413 76.3896 68.8486 76.3619 69.7953 77.2745L78.1681 85.3447L96.5658 67.6116C97.5126 66.699 99.0199 66.7267 99.9325 67.6735Z" fill="#FF7E1D"/>
</svg>
