<svg width="16" height="17" viewBox="0 0 16 17" fill="none" xmlns="http://www.w3.org/2000/svg">
<path d="M14.6456 8.72584C14.2061 8.72584 13.8493 9.08265 13.8493 9.52222C13.8493 11.3089 13.0451 12.912 11.7781 13.9876C12.0212 13.4679 12.2203 12.8836 12.3651 12.2423C12.4608 11.8131 12.1893 11.3865 11.76 11.2908C11.3308 11.1951 10.9042 11.464 10.8085 11.8958C10.369 13.8584 9.37608 15.0788 8.21254 15.0788C6.86541 15.0788 5.66567 12.9508 5.42004 10.3238H7.56354C8.0031 10.3238 8.35992 9.96695 8.35992 9.52739C8.35992 9.08783 8.0031 8.73101 7.56354 8.73101H5.38901C5.46399 7.35803 5.79496 6.1014 6.33794 5.14213C6.868 4.20612 7.55578 3.67089 8.22029 3.67089C8.65985 3.67089 9.01667 3.31407 9.01667 2.87451C9.01667 2.43495 8.65985 2.07813 8.22029 2.07813C8.17117 2.07813 8.12204 2.07813 8.07291 2.0833C8.04706 2.08072 8.01861 2.07813 7.99017 2.07813C3.88157 2.07296 0.53833 5.41362 0.53833 9.52222C0.53833 13.6334 3.88157 16.9766 7.99017 16.9766C12.0988 16.9766 15.442 13.6334 15.442 9.5248C15.442 9.08524 15.0852 8.72842 14.6456 8.72842V8.72584ZM4.81241 4.6069C4.2203 5.75751 3.86606 7.19255 3.79108 8.72584H2.18797C2.42327 7.00121 3.41357 5.51446 4.81241 4.6069ZM2.18797 10.3212H3.81435C3.94622 12.0122 4.41422 13.5067 5.10717 14.6211C3.5532 13.7368 2.44137 12.1647 2.18797 10.3212Z" fill="#444444"/>
<path d="M12.0057 6.38833C10.5784 6.38833 9.41748 5.17566 9.41748 3.68374C9.41748 2.19182 10.5784 0.976562 12.0057 0.976562C13.433 0.976562 14.594 2.18923 14.594 3.68115C14.594 5.17307 13.433 6.38574 12.0057 6.38574V6.38833ZM12.0057 2.65723C11.5067 2.65723 11.0982 3.11748 11.0982 3.68115C11.0982 4.24482 11.5041 4.70507 12.0057 4.70507C12.5073 4.70507 12.9133 4.24482 12.9133 3.68115C12.9133 3.11748 12.5073 2.65723 12.0057 2.65723Z" fill="#444444"/>
<path d="M9.72507 8.25791C9.61647 8.25791 9.50529 8.23722 9.39928 8.19068C8.97264 8.00969 8.77096 7.51583 8.95196 7.08919C9.47684 5.8455 10.6895 5.04395 12.0392 5.04395C13.3889 5.04395 14.5473 5.81447 15.0903 7.00904C15.2816 7.4305 15.0955 7.92953 14.674 8.12087C14.2525 8.31221 13.7535 8.12604 13.5622 7.70458C13.2907 7.10988 12.6934 6.72462 12.0418 6.72462C11.3902 6.72462 10.7645 7.12539 10.5033 7.74595C10.3689 8.06657 10.056 8.25791 9.73024 8.25791H9.72507Z" fill="#444444"/>
</svg>
