<svg width="16" height="17" viewBox="0 0 16 17" fill="none" xmlns="http://www.w3.org/2000/svg">
<path d="M8.50578 14.1984C8.58269 14.2223 8.6596 14.2329 8.73651 14.2329C8.95133 14.2329 9.1635 14.148 9.31997 13.9889C9.53214 13.7741 9.60905 13.4611 9.51888 13.1721C9.51357 13.1508 8.87707 11.0849 8.67286 9.57319C8.61982 9.16742 8.2724 8.86508 7.86133 8.86508H6.49816C6.50611 8.81204 6.50877 8.75635 6.51142 8.70065C6.52998 8.17024 6.33903 7.66369 5.97304 7.27649L3.70552 4.88431C3.39522 4.55545 2.87807 4.54219 2.54921 4.85249C2.22035 5.16278 2.20709 5.67993 2.51738 6.00879L4.78226 8.39832C4.86713 8.48849 4.87508 8.58927 4.87508 8.64231C4.87508 8.69535 4.85652 8.79613 4.76635 8.87834L4.14841 9.44854C4.00255 9.5838 3.75325 9.57584 3.61004 9.42998L1.41147 7.19427C1.09322 6.87337 0.576062 6.86807 0.25516 7.18632C-0.0657414 7.50457 -0.0710456 8.02172 0.247204 8.34262L2.44578 10.5704C2.83829 10.9735 3.36605 11.1777 3.89647 11.1777C4.03703 11.1777 4.17493 11.1618 4.31284 11.1353L4.31815 12.4878C4.31815 12.875 4.59131 13.2065 4.96791 13.2861C6.4902 13.6044 8.48987 14.1905 8.50843 14.1958L8.50578 14.1984ZM7.55634 12.2359C7.0657 12.1059 6.50081 11.9601 5.94652 11.8301L5.94122 10.5067H7.16383C7.27522 11.1008 7.41843 11.7108 7.55368 12.2359H7.55634Z" fill="#444444"/>
<path d="M15.73 5.09907L11.476 0.845133C11.3222 0.691312 11.1153 0.606445 10.8979 0.606445H5.11103C4.66018 0.606445 4.29419 0.972432 4.29419 1.42329C4.29419 1.87414 4.66018 2.24013 5.11103 2.24013H10.5584L14.3323 6.01404V14.9701H5.37093C4.92008 14.9701 4.55409 15.3361 4.55409 15.787C4.55409 16.2378 4.92008 16.6038 5.37093 16.6038H15.1492C15.6 16.6038 15.966 16.2378 15.966 15.787V5.67722C15.966 5.45975 15.8811 5.25289 15.7273 5.09907H15.73Z" fill="#444444"/>
</svg>
