<svg width="18" height="17" viewBox="0 0 18 17" fill="none" xmlns="http://www.w3.org/2000/svg">
<path d="M16.6342 16.4814H1.34618C0.84396 16.4814 0.436279 16.0738 0.436279 15.5715V1.39134C0.436279 0.889126 0.84396 0.481445 1.34618 0.481445C1.84839 0.481445 2.25607 0.889126 2.25607 1.39134V14.6587H16.6342C17.1364 14.6587 17.5441 15.0664 17.5441 15.5686C17.5441 16.0708 17.1364 16.4785 16.6342 16.4785V16.4814Z" fill="#444444"/>
<path d="M15.172 6.55522C14.6786 6.45773 14.2 6.77383 14.0996 7.26719C14.008 7.70736 13.6535 8.56704 13.2488 8.56704C12.7643 8.56704 12.5221 6.58477 12.4068 5.63056C12.3625 5.27605 12.3182 4.90973 12.268 4.56113C12.2237 4.27457 12.0523 4.04415 11.8219 3.91121C11.4969 3.71032 11.0715 3.72509 10.7643 3.98211C9.49104 5.03971 9.26652 6.82996 9.06858 8.41047C8.97405 9.1697 8.88542 9.88757 8.6934 10.3484C8.53683 10.7266 8.4157 10.7266 8.25913 10.7266C8.10256 10.7266 7.80714 9.97029 7.68602 9.64828C7.52058 9.21697 7.35219 8.77088 7.09517 8.39274C6.60182 7.66305 5.98734 7.51239 5.55898 7.51239C5.00655 7.51239 4.51319 7.71623 4.12915 8.10323C3.2931 8.94518 3.26356 10.375 3.26652 10.6527C3.27242 11.152 3.67715 11.5567 4.17641 11.5567H4.18528C4.68749 11.5508 5.09222 11.1402 5.08926 10.6379C5.08926 10.3337 5.1838 9.6276 5.42309 9.38831C5.45263 9.35877 5.47627 9.34104 5.52649 9.33809C5.66829 9.47694 5.86327 9.98802 5.98144 10.3012C6.32412 11.1992 6.84111 12.5523 8.25913 12.5523C8.94155 12.5523 9.86327 12.2923 10.3773 11.0486C10.6609 10.3602 10.7643 9.5242 10.8766 8.6409C10.9002 8.44296 10.9268 8.24208 10.9534 8.04119C11.0006 8.23617 11.0538 8.42228 11.1159 8.59954C11.6358 10.0825 12.5634 10.3927 13.2517 10.3927C14.9002 10.3927 15.686 8.65567 15.8899 7.63056C15.9873 7.1372 15.6683 6.65567 15.1749 6.55818L15.172 6.55522Z" fill="#444444"/>
</svg>
