<svg width="17" height="17" viewBox="0 0 17 17" fill="none" xmlns="http://www.w3.org/2000/svg">
<path d="M15.9485 9.68545C15.7364 9.68545 15.5329 9.76974 15.3828 9.91976C15.2328 10.0698 15.1485 10.2733 15.1485 10.4854V13.6854C15.1485 13.8976 15.0643 14.1011 14.9142 14.2511C14.7642 14.4012 14.5607 14.4854 14.3485 14.4854H3.14854C2.93636 14.4854 2.73288 14.4012 2.58285 14.2511C2.43282 14.1011 2.34854 13.8976 2.34854 13.6854V10.4854C2.34854 10.2733 2.26425 10.0698 2.11422 9.91976C1.96419 9.76974 1.76071 9.68545 1.54854 9.68545C1.33636 9.68545 1.13288 9.76974 0.98285 9.91976C0.832821 10.0698 0.748535 10.2733 0.748535 10.4854V13.6854C0.748535 14.322 1.00139 14.9324 1.45148 15.3825C1.90157 15.8326 2.51202 16.0854 3.14854 16.0854H14.3485C14.9851 16.0854 15.5955 15.8326 16.0456 15.3825C16.4957 14.9324 16.7485 14.322 16.7485 13.6854V10.4854C16.7485 10.2733 16.6643 10.0698 16.5142 9.91976C16.3642 9.76974 16.1607 9.68545 15.9485 9.68545ZM8.18054 11.0534C8.25662 11.1263 8.34633 11.1834 8.44454 11.2214C8.5403 11.2638 8.64384 11.2856 8.74854 11.2856C8.85323 11.2856 8.95677 11.2638 9.05254 11.2214C9.15074 11.1834 9.24045 11.1263 9.31653 11.0534L12.5165 7.85345C12.6672 7.70281 12.7518 7.49849 12.7518 7.28545C12.7518 7.07241 12.6672 6.86809 12.5165 6.71745C12.3659 6.56681 12.1616 6.48218 11.9485 6.48218C11.7355 6.48218 11.5312 6.56681 11.3805 6.71745L9.54854 8.55745V0.885449C9.54854 0.673276 9.46425 0.469793 9.31422 0.319764C9.16419 0.169735 8.96071 0.0854492 8.74854 0.0854492C8.53636 0.0854492 8.33288 0.169735 8.18285 0.319764C8.03282 0.469793 7.94854 0.673276 7.94854 0.885449V8.55745L6.11654 6.71745C6.04194 6.64286 5.95339 6.58369 5.85594 6.54332C5.75848 6.50295 5.65402 6.48218 5.54854 6.48218C5.44305 6.48218 5.33859 6.50295 5.24114 6.54332C5.14368 6.58369 5.05513 6.64286 4.98054 6.71745C4.90594 6.79204 4.84678 6.88059 4.80641 6.97805C4.76604 7.07551 4.74526 7.17996 4.74526 7.28545C4.74526 7.39094 4.76604 7.49539 4.80641 7.59285C4.84678 7.69031 4.90594 7.77886 4.98054 7.85345L8.18054 11.0534Z" fill="#444444"/>
</svg>
