<svg width="20" height="21" viewBox="0 0 20 21" fill="none" xmlns="http://www.w3.org/2000/svg">
<path d="M19.4446 3.01318H10.5557V18.5687H19.4446C19.7518 18.5687 20.0001 18.3204 20.0001 18.0132V3.56874C20.0001 3.26152 19.7518 3.01318 19.4446 3.01318Z" fill="#4CAF50"/>
<path d="M14.4446 5.79102H18.3334V7.45768H14.4446V5.79102ZM14.4446 11.3466H18.3334V13.0132H14.4446V11.3466ZM14.4446 14.1243H18.3334V15.791H14.4446V14.1243ZM14.4446 8.56879H18.3334V10.2355H14.4446V8.56879ZM10.5557 5.79102H13.3334V7.45768H10.5557V5.79102ZM10.5557 11.3466H13.3334V13.0132H10.5557V11.3466ZM10.5557 14.1243H13.3334V15.791H10.5557V14.1243ZM10.5557 8.56879H13.3334V10.2355H10.5557V8.56879Z" fill="white"/>
<path d="M11.6667 20.791L0 18.5688V3.01324L11.6667 0.791016V20.791Z" fill="#2E7D32"/>
<path d="M7.29406 14.6799L5.95462 12.146C5.90351 12.051 5.85128 11.8777 5.79684 11.6249H5.77628C5.75073 11.7443 5.69073 11.9254 5.59628 12.1688L4.25128 14.6799H2.16406L4.64295 10.7904L2.37462 6.9021H4.50628L5.61795 9.23321C5.70462 9.4171 5.7824 9.63599 5.85128 9.88821H5.87351C5.91684 9.73765 5.99795 9.51043 6.1174 9.21043L7.35406 6.9021H9.30684L6.97406 10.7571L9.37184 14.6788H7.29406V14.6799Z" fill="white"/>
</svg>
