<svg width="16" height="16" viewBox="0 0 16 16" fill="none" xmlns="http://www.w3.org/2000/svg">
<path d="M3.94667 9.17434C3.79439 9.17434 3.64211 9.13159 3.50586 9.0461C3.12116 8.80299 3.00895 8.29272 3.25207 7.90802L5.15422 5.09486C5.30383 4.85976 5.56564 4.7155 5.84348 4.71282H5.84883C6.12667 4.71282 6.38581 4.85442 6.53809 5.08684L7.64946 6.78863L9.22568 4.34148C9.47681 3.96212 9.98708 3.85792 10.3664 4.10905C10.7458 4.36018 10.85 4.87045 10.5989 5.24981L8.33071 8.74154C8.17843 8.97397 7.91662 9.11289 7.64145 9.11022C7.3636 9.11022 7.10446 8.96863 6.95485 8.7362L5.85951 7.05579L4.64395 8.78963C4.48633 9.03542 4.21917 9.17167 3.94667 9.17167V9.17434Z" fill="#444444"/>
<path d="M15.4023 14.5921L12.0896 11.2793C13.1743 10.0798 13.8368 8.49023 13.8368 6.75104C13.8368 5.90683 13.6765 5.06796 13.372 4.28786C12.4529 1.72049 10.3103 0.82017 10.3103 0.82017C9.32453 0.283186 8.22118 0 7.08309 0C3.36427 0 0.334717 3.02955 0.334717 6.75372C0.334717 10.4779 3.36427 13.5074 7.08843 13.5074C8.47765 13.5074 9.76801 13.0853 10.8447 12.364L14.2402 15.7596C14.4005 15.9199 14.6116 16 14.8226 16C15.0337 16 15.2447 15.9199 15.405 15.7596C15.7256 15.4363 15.7256 14.9153 15.405 14.5948L15.4023 14.5921ZM7.08576 11.8564C4.26993 11.8564 1.9804 9.56687 1.9804 6.75104C1.9804 3.93521 4.2726 1.64836 7.08576 1.64836C7.84983 1.64836 8.59519 1.81666 9.27644 2.13992C10.5348 2.76507 11.192 3.62264 11.5019 4.15695C11.5179 4.20504 11.5393 4.25313 11.5633 4.29855C11.9747 5.04659 12.1911 5.89347 12.1911 6.75372C12.1911 9.56954 9.90159 11.8591 7.08576 11.8591V11.8564Z" fill="#444444"/>
</svg>
