<svg width="179" height="170" viewBox="0 0 179 170" fill="none" xmlns="http://www.w3.org/2000/svg">
<path opacity="0.5" d="M11.1343 38.8101C-5.24142 65.8126 -2.62828 105.184 14.9669 131.141C32.7363 157.098 65.4877 169.642 98.2391 169.642C131.165 169.642 164.09 157.273 174.891 135.322C185.518 113.372 174.02 82.0141 157.645 55.0116C141.095 27.8349 119.667 5.01342 91.2707 1.0066C62.8745 -3.00022 27.51 11.8076 11.1343 38.8101Z" fill="#FDF5EF"/>
<mask id="path-2-inside-1_960_507" fill="white">
<path d="M89.5986 135C117.213 135 139.599 112.614 139.599 85C139.599 57.3858 117.213 35 89.5986 35C61.9844 35 39.5986 57.3858 39.5986 85C39.5986 112.614 61.9844 135 89.5986 135Z"/>
<path d="M59.5986 75L76.7702 92.1716C77.7602 93.1616 78.2553 93.6566 78.8261 93.8421C79.3282 94.0052 79.8691 94.0052 80.3712 93.8421C80.942 93.6566 81.437 93.1616 82.4271 92.1716L96.7702 77.8284C97.7602 76.8384 98.2553 76.3434 98.8261 76.1579C99.3282 75.9948 99.8691 75.9948 100.371 76.1579C100.942 76.3434 101.437 76.8384 102.427 77.8284L119.599 95"/>
</mask>
<path d="M63.1342 71.4645C61.1815 69.5118 58.0157 69.5118 56.0631 71.4645C54.1105 73.4171 54.1105 76.5829 56.0631 78.5355L63.1342 71.4645ZM116.063 98.5355C118.016 100.488 121.182 100.488 123.134 98.5355C125.087 96.5829 125.087 93.4171 123.134 91.4645L116.063 98.5355ZM98.8261 76.1579L97.281 71.4026L98.8261 76.1579ZM100.371 76.1579L101.916 71.4026L100.371 76.1579ZM78.8261 93.8421L77.281 98.5974L78.8261 93.8421ZM80.3712 93.8421L81.9163 98.5974L80.3712 93.8421ZM134.599 85C134.599 109.853 114.451 130 89.5986 130V140C119.974 140 144.599 115.376 144.599 85H134.599ZM89.5986 130C64.7458 130 44.5986 109.853 44.5986 85H34.5986C34.5986 115.376 59.223 140 89.5986 140V130ZM44.5986 85C44.5986 60.1472 64.7458 40 89.5986 40V30C59.223 30 34.5986 54.6243 34.5986 85H44.5986ZM89.5986 40C114.451 40 134.599 60.1472 134.599 85H144.599C144.599 54.6243 119.974 30 89.5986 30V40ZM56.0631 78.5355L73.2347 95.7071L80.3057 88.636L63.1342 71.4645L56.0631 78.5355ZM85.9626 95.7071L100.306 81.364L93.2347 74.2929L78.8915 88.636L85.9626 95.7071ZM98.8915 81.364L116.063 98.5355L123.134 91.4645L105.963 74.2929L98.8915 81.364ZM100.306 81.364C100.561 81.1084 100.748 80.9221 100.908 80.7665C101.069 80.6108 101.152 80.5361 101.191 80.5031C101.229 80.4714 101.169 80.5264 101.034 80.6098C100.886 80.7017 100.661 80.819 100.371 80.9132L97.281 71.4026C96.1178 71.7805 95.2748 72.4083 94.7195 72.8797C94.2087 73.3133 93.6714 73.8562 93.2347 74.2929L100.306 81.364ZM105.963 74.2929C105.526 73.8562 104.989 73.3133 104.478 72.8797C103.922 72.4083 103.079 71.7805 101.916 71.4026L98.8261 80.9132C98.5362 80.819 98.3117 80.7017 98.163 80.6098C98.0283 80.5264 97.9686 80.4714 98.006 80.5031C98.0449 80.5361 98.1282 80.6108 98.2889 80.7665C98.4495 80.9221 98.6359 81.1084 98.8915 81.364L105.963 74.2929ZM100.371 80.9132C99.8691 81.0763 99.3282 81.0763 98.8261 80.9132L101.916 71.4026C100.41 70.9132 98.7873 70.9132 97.281 71.4026L100.371 80.9132ZM73.2347 95.7071C73.6714 96.1438 74.2087 96.6867 74.7195 97.1203C75.2748 97.5917 76.1178 98.2195 77.281 98.5974L80.3712 89.0868C80.6611 89.181 80.8856 89.2983 81.0342 89.3902C81.169 89.4736 81.2286 89.5286 81.1912 89.4969C81.1524 89.4639 81.069 89.3892 80.9084 89.2335C80.7478 89.0779 80.5613 88.8916 80.3057 88.636L73.2347 95.7071ZM78.8915 88.636C78.6359 88.8916 78.4495 89.0779 78.2889 89.2335C78.1282 89.3892 78.0449 89.4639 78.006 89.4969C77.9686 89.5286 78.0283 89.4736 78.163 89.3902C78.3117 89.2983 78.5362 89.181 78.8261 89.0868L81.9163 98.5974C83.0794 98.2195 83.9224 97.5917 84.4778 97.1203C84.9885 96.6867 85.5259 96.1438 85.9626 95.7071L78.8915 88.636ZM77.281 98.5974C78.7873 99.0868 80.4099 99.0868 81.9163 98.5974L78.8261 89.0868C79.3282 88.9237 79.8691 88.9237 80.3712 89.0868L77.281 98.5974Z" fill="#FF7E1D" mask="url(#path-2-inside-1_960_507)"/>
</svg>
