<svg width="21" height="20" viewBox="0 0 21 20" fill="none" xmlns="http://www.w3.org/2000/svg">
<path d="M17.657 6.66667L12.657 2.28334C12.1986 1.87338 11.6053 1.64673 10.9903 1.64673C10.3754 1.64673 9.782 1.87338 9.32365 2.28334L4.32365 6.66667C4.05895 6.9034 3.84773 7.1938 3.70404 7.51854C3.56035 7.84328 3.48749 8.19491 3.49031 8.55V15.8333C3.49031 16.4964 3.75371 17.1323 4.22255 17.6011C4.69139 18.0699 5.32727 18.3333 5.99031 18.3333H15.9903C16.6534 18.3333 17.2892 18.0699 17.7581 17.6011C18.2269 17.1323 18.4903 16.4964 18.4903 15.8333V8.54167C18.492 8.18797 18.4185 7.83795 18.2749 7.51474C18.1312 7.19152 17.9206 6.90247 17.657 6.66667ZM12.657 16.6667H9.32365V12.5C9.32365 12.279 9.41144 12.067 9.56772 11.9107C9.724 11.7545 9.93597 11.6667 10.157 11.6667H11.8236C12.0447 11.6667 12.2566 11.7545 12.4129 11.9107C12.5692 12.067 12.657 12.279 12.657 12.5V16.6667ZM16.8236 15.8333C16.8236 16.0544 16.7358 16.2663 16.5796 16.4226C16.4233 16.5789 16.2113 16.6667 15.9903 16.6667H14.3236V12.5C14.3236 11.837 14.0603 11.2011 13.5914 10.7322C13.1226 10.2634 12.4867 10 11.8236 10H10.157C9.49394 10 8.85805 10.2634 8.38921 10.7322C7.92037 11.2011 7.65698 11.837 7.65698 12.5V16.6667H5.99031C5.7693 16.6667 5.55734 16.5789 5.40106 16.4226C5.24478 16.2663 5.15698 16.0544 5.15698 15.8333V8.54167C5.15713 8.42335 5.18247 8.30642 5.23133 8.19865C5.28018 8.09089 5.35142 7.99476 5.44031 7.91667L10.4403 3.54167C10.5924 3.40807 10.7879 3.33439 10.9903 3.33439C11.1927 3.33439 11.3882 3.40807 11.5403 3.54167L16.5403 7.91667C16.6292 7.99476 16.7004 8.09089 16.7493 8.19865C16.7982 8.30642 16.8235 8.42335 16.8236 8.54167V15.8333Z" fill="#444444"/>
</svg>
