<svg width="14" height="14" viewBox="0 0 14 14" fill="none" xmlns="http://www.w3.org/2000/svg">
<path fill-rule="evenodd" clip-rule="evenodd" d="M7.12744 1.66326C4.19029 1.66326 1.80926 4.04429 1.80926 6.98144C1.80926 9.9186 4.19029 12.2996 7.12744 12.2996C10.0646 12.2996 12.4456 9.9186 12.4456 6.98144C12.4456 4.04429 10.0646 1.66326 7.12744 1.66326ZM0.627441 6.98144C0.627441 3.39159 3.53759 0.481445 7.12744 0.481445C10.7173 0.481445 13.6274 3.39159 13.6274 6.98144C13.6274 10.5713 10.7173 13.4814 7.12744 13.4814C3.53759 13.4814 0.627441 10.5713 0.627441 6.98144ZM6.53653 4.61781C6.53653 4.29146 6.80109 4.0269 7.12744 4.0269H7.13335C7.4597 4.0269 7.72426 4.29146 7.72426 4.61781C7.72426 4.94416 7.4597 5.20872 7.13335 5.20872H7.12744C6.80109 5.20872 6.53653 4.94416 6.53653 4.61781ZM7.12744 6.39054C7.45379 6.39054 7.71835 6.65509 7.71835 6.98144V9.34508C7.71835 9.67143 7.45379 9.93599 7.12744 9.93599C6.80109 9.93599 6.53653 9.67143 6.53653 9.34508V6.98144C6.53653 6.65509 6.80109 6.39054 7.12744 6.39054Z" fill="#444444"/>
</svg>
