<svg width="180" height="170" viewBox="0 0 180 170" fill="none" xmlns="http://www.w3.org/2000/svg">
<path opacity="0.5" d="M11.4062 38.8101C-4.96945 65.8126 -2.35631 105.184 15.2389 131.141C33.0082 157.098 65.7597 169.642 98.5111 169.642C131.437 169.642 164.362 157.273 175.163 135.322C185.79 113.372 174.292 82.0141 157.917 55.0116C141.367 27.8349 119.939 5.01342 91.5427 1.0066C63.1465 -3.00022 27.782 11.8076 11.4062 38.8101Z" fill="#FDF5EF"/>
<path fill-rule="evenodd" clip-rule="evenodd" d="M63.8514 35H113.631C117.547 35 120.63 35 123.109 35.2026C125.638 35.4092 127.745 35.8381 129.659 36.813C132.789 38.4078 135.333 40.9525 136.928 44.0824C137.903 45.9958 138.332 48.1031 138.539 50.6319C138.741 53.1116 138.741 56.1938 138.741 60.1101V109.89C138.741 113.806 138.741 116.888 138.539 119.368C138.332 121.897 137.903 124.004 136.928 125.917C135.333 129.047 132.789 131.592 129.659 133.187C128.987 133.529 128.288 133.806 127.55 134.029C124.344 135.001 120.16 135.001 113.996 135C113.841 135 113.685 135 113.527 135H63.9552C63.7976 135 63.6412 135 63.4861 135C57.3227 135.001 53.1388 135.001 49.9321 134.029C49.1945 133.806 48.4957 133.529 47.8237 133.187C44.6937 131.592 42.149 129.047 40.5542 125.917C39.5793 124.004 39.1504 121.897 38.9438 119.368C38.7412 116.888 38.7412 113.806 38.7412 109.89V60.1101C38.7412 56.1938 38.7412 53.1117 38.9438 50.6319C39.1504 48.1031 39.5793 45.9958 40.5542 44.0824C42.149 40.9525 44.6937 38.4078 47.8237 36.813C49.7371 35.8381 51.8443 35.4092 54.3731 35.2026C56.8529 35 59.935 35 63.8514 35ZM54.7534 39.8563C52.5133 40.0393 51.0889 40.3897 49.9435 40.9734C47.6921 42.1205 45.8617 43.9509 44.7146 46.2022C44.1309 47.3477 43.7806 48.772 43.5975 51.0122C43.4123 53.2795 43.4105 56.1712 43.4105 60.214V109.786C43.4105 113.829 43.4123 116.72 43.5975 118.988C43.7806 121.228 44.1309 122.652 44.7146 123.798C45.5683 125.473 46.8003 126.915 48.3027 128.016C48.3432 126.289 48.4421 124.948 48.6855 123.724C50.3742 115.234 57.0105 108.598 65.5 106.909C67.5696 106.498 69.9958 106.498 74.1125 106.498H103.37C107.487 106.498 109.913 106.498 111.982 106.909C120.472 108.598 127.108 115.234 128.797 123.724C129.04 124.948 129.139 126.289 129.18 128.016C130.682 126.915 131.914 125.473 132.768 123.798C133.351 122.652 133.702 121.228 133.885 118.988C134.07 116.72 134.072 113.829 134.072 109.786V60.214C134.072 56.1712 134.07 53.2795 133.885 51.0122C133.702 48.772 133.351 47.3477 132.768 46.2022C131.621 43.9509 129.79 42.1205 127.539 40.9734C126.394 40.3897 124.969 40.0393 122.729 39.8563C120.462 39.6711 117.57 39.6693 113.527 39.6693H63.9552C59.9124 39.6693 57.0207 39.6711 54.7534 39.8563ZM124.534 129.935C124.518 127.25 124.455 125.827 124.217 124.635C122.897 117.997 117.709 112.809 111.072 111.489C109.512 111.179 107.582 111.167 103.041 111.167H74.4416C69.9001 111.167 67.9703 111.179 66.4109 111.489C59.7737 112.809 54.5853 117.997 53.265 124.635C53.0279 125.827 52.9643 127.25 52.9485 129.935C55.3012 130.315 58.58 130.331 63.9552 130.331H113.527C118.902 130.331 122.181 130.315 124.534 129.935ZM88.7412 56.3521C79.5006 56.3521 72.0097 63.8431 72.0097 73.0836C72.0097 82.3242 79.5006 89.8151 88.7412 89.8151C97.9818 89.8151 105.473 82.3242 105.473 73.0836C105.473 63.8431 97.9818 56.3521 88.7412 56.3521ZM67.3404 73.0836C67.3404 61.2643 76.9219 51.6829 88.7412 51.6829C100.561 51.6829 110.142 61.2643 110.142 73.0836C110.142 84.903 100.561 94.4844 88.7412 94.4844C76.9219 94.4844 67.3404 84.903 67.3404 73.0836Z" fill="#FF7E1D"/>
</svg>
