<svg width="21" height="20" viewBox="0 0 21 20" fill="none" xmlns="http://www.w3.org/2000/svg">
<path d="M10.9903 1.6665C9.34214 1.6665 7.73098 2.15525 6.36057 3.07092C4.99016 3.9866 3.92205 5.28809 3.29132 6.81081C2.66059 8.33353 2.49557 10.0091 2.81711 11.6256C3.13865 13.2421 3.93233 14.727 5.09776 15.8924C6.2632 17.0578 7.74806 17.8515 9.36457 18.173C10.9811 18.4946 12.6566 18.3296 14.1793 17.6988C15.7021 17.0681 17.0036 16 17.9192 14.6296C18.8349 13.2592 19.3237 11.648 19.3237 9.99984C19.3237 8.90549 19.1081 7.82186 18.6893 6.81081C18.2705 5.79976 17.6567 4.8811 16.8829 4.10728C16.1091 3.33346 15.1904 2.71963 14.1793 2.30084C13.1683 1.88205 12.0847 1.6665 10.9903 1.6665ZM10.9903 16.6665C9.67178 16.6665 8.38285 16.2755 7.28652 15.543C6.19019 14.8104 5.33571 13.7692 4.83112 12.5511C4.32654 11.3329 4.19452 9.99244 4.45175 8.69924C4.70899 7.40603 5.34392 6.21814 6.27627 5.28579C7.20862 4.35344 8.39651 3.7185 9.68972 3.46127C10.9829 3.20403 12.3234 3.33606 13.5415 3.84064C14.7597 4.34522 15.8009 5.19971 16.5334 6.29604C17.266 7.39236 17.657 8.6813 17.657 9.99984C17.657 11.7679 16.9546 13.4636 15.7044 14.7139C14.4541 15.9641 12.7584 16.6665 10.9903 16.6665ZM10.9903 7.49984C10.4959 7.49984 10.0125 7.64646 9.60139 7.92116C9.19027 8.19587 8.86984 8.58631 8.68062 9.04313C8.4914 9.49994 8.44189 10.0026 8.53836 10.4876C8.63482 10.9725 8.87292 11.418 9.22255 11.7676C9.57218 12.1172 10.0176 12.3553 10.5026 12.4518C10.9875 12.5483 11.4902 12.4988 11.947 12.3095C12.4038 12.1203 12.7943 11.7999 13.069 11.3888C13.3437 10.9776 13.4903 10.4943 13.4903 9.99984C13.4903 9.3368 13.2269 8.70091 12.7581 8.23207C12.2892 7.76323 11.6534 7.49984 10.9903 7.49984ZM10.9903 10.8332C10.8255 10.8332 10.6644 10.7843 10.5273 10.6927C10.3903 10.6012 10.2835 10.471 10.2204 10.3187C10.1573 10.1665 10.1408 9.99891 10.173 9.83726C10.2052 9.67561 10.2845 9.52713 10.4011 9.41058C10.5176 9.29404 10.6661 9.21467 10.8277 9.18252C10.9894 9.15036 11.157 9.16686 11.3092 9.22994C11.4615 9.29301 11.5916 9.39982 11.6832 9.53686C11.7748 9.6739 11.8237 9.83502 11.8237 9.99984C11.8237 10.2209 11.7359 10.4328 11.5796 10.5891C11.4233 10.7454 11.2113 10.8332 10.9903 10.8332Z" fill="#444444"/>
</svg>
