<svg width="16" height="21" viewBox="0 0 16 21" fill="none" xmlns="http://www.w3.org/2000/svg">
<path d="M8 11.6064C7.73478 11.6064 7.48043 11.7118 7.29289 11.8993C7.10536 12.0869 7 12.3412 7 12.6064V15.6064C7 15.8717 7.10536 16.126 7.29289 16.3136C7.48043 16.5011 7.73478 16.6064 8 16.6064C8.26522 16.6064 8.51957 16.5011 8.70711 16.3136C8.89464 16.126 9 15.8717 9 15.6064V12.6064C9 12.3412 8.89464 12.0869 8.70711 11.8993C8.51957 11.7118 8.26522 11.6064 8 11.6064ZM13 7.60645V5.60645C13 4.28036 12.4732 3.00859 11.5355 2.07091C10.5979 1.13323 9.32608 0.606445 8 0.606445C6.67392 0.606445 5.40215 1.13323 4.46447 2.07091C3.52678 3.00859 3 4.28036 3 5.60645V7.60645C2.20435 7.60645 1.44129 7.92252 0.87868 8.48512C0.316071 9.04773 0 9.8108 0 10.6064V17.6064C0 18.4021 0.316071 19.1652 0.87868 19.7278C1.44129 20.2904 2.20435 20.6064 3 20.6064H13C13.7956 20.6064 14.5587 20.2904 15.1213 19.7278C15.6839 19.1652 16 18.4021 16 17.6064V10.6064C16 9.8108 15.6839 9.04773 15.1213 8.48512C14.5587 7.92252 13.7956 7.60645 13 7.60645ZM5 5.60645C5 4.8108 5.31607 4.04773 5.87868 3.48513C6.44129 2.92252 7.20435 2.60645 8 2.60645C8.79565 2.60645 9.55871 2.92252 10.1213 3.48513C10.6839 4.04773 11 4.8108 11 5.60645V7.60645H5V5.60645ZM14 17.6064C14 17.8717 13.8946 18.126 13.7071 18.3136C13.5196 18.5011 13.2652 18.6064 13 18.6064H3C2.73478 18.6064 2.48043 18.5011 2.29289 18.3136C2.10536 18.126 2 17.8717 2 17.6064V10.6064C2 10.3412 2.10536 10.0869 2.29289 9.89934C2.48043 9.7118 2.73478 9.60645 3 9.60645H13C13.2652 9.60645 13.5196 9.7118 13.7071 9.89934C13.8946 10.0869 14 10.3412 14 10.6064V17.6064Z" fill="#444444"/>
</svg>
