<svg width="16" height="19" viewBox="0 0 16 19" fill="none" xmlns="http://www.w3.org/2000/svg">
<path d="M1.37499 0.954102H10.9335L16 6.00087V17.8291C16 18.4507 15.496 18.9541 14.875 18.9541H1.37499C0.753972 18.9541 0.25 18.4507 0.25 17.8291V2.07909C0.25 1.45755 0.754031 0.954102 1.37499 0.954102Z" fill="#E2574C"/>
<path d="M15.9837 6.01658H12.0625C11.4415 6.01658 10.9376 5.51261 10.9376 4.89159V0.965332L15.9837 6.01658Z" fill="#B53629"/>
<path d="M13.6927 8.94046C13.9798 8.94046 14.1204 8.69024 14.1204 8.44773C14.1204 8.19661 13.9738 7.9541 13.6927 7.9541H12.0576C11.738 7.9541 11.5598 8.21887 11.5598 8.51112V12.5294C11.5598 12.8876 11.7637 13.0864 12.0396 13.0864C12.3139 13.0864 12.5187 12.8876 12.5187 12.5294V11.4265H13.5077C13.8145 11.4265 13.9679 11.1754 13.9679 10.926C13.9679 10.6818 13.8145 10.4392 13.5077 10.4392H12.5187V8.94046H13.6927ZM8.1662 7.9541H6.96987C6.64507 7.9541 6.41453 8.17693 6.41453 8.50767V12.5328C6.41453 12.9433 6.74616 13.0718 6.98352 13.0718H8.239C9.72492 13.0718 10.7061 12.0941 10.7061 10.5849C10.7053 8.98932 9.78158 7.9541 8.1662 7.9541ZM8.22366 12.0795H7.49435V8.94649H8.15166C9.14662 8.94649 9.57933 9.61409 9.57933 10.5353C9.57933 11.3974 9.15425 12.0795 8.22366 12.0795ZM3.84116 7.9541H2.656C2.32092 7.9541 2.13409 8.17515 2.13409 8.51112V12.5294C2.13409 12.8876 2.34832 13.0864 2.63623 13.0864C2.92414 13.0864 3.13837 12.8876 3.13837 12.5294V11.3562H3.88133C4.79826 11.3562 5.55497 10.7066 5.55497 9.66197C5.55506 8.6397 4.82495 7.9541 3.84116 7.9541ZM3.82148 10.4136H3.13845V8.89764H3.82148C4.2431 8.89764 4.51133 9.22669 4.51133 9.65603C4.51044 10.0846 4.2431 10.4136 3.82148 10.4136Z" fill="white"/>
</svg>
