<svg width="21" height="21" viewBox="0 0 21 21" fill="none" xmlns="http://www.w3.org/2000/svg">
<path d="M13.9497 11.4674C14.9301 10.6961 15.6457 9.63837 15.997 8.44139C16.3482 7.24441 16.3177 5.96771 15.9095 4.78892C15.5014 3.61012 14.736 2.58784 13.7198 1.8643C12.7036 1.14077 11.4872 0.751953 10.2397 0.751953C8.99229 0.751953 7.77586 1.14077 6.75967 1.8643C5.74349 2.58784 4.97809 3.61012 4.56996 4.78892C4.16182 5.96771 4.13126 7.24441 4.4825 8.44139C4.83375 9.63837 5.54935 10.6961 6.52974 11.4674C4.84982 12.1405 3.38403 13.2568 2.28864 14.6974C1.19324 16.1379 0.509306 17.8488 0.309743 19.6474C0.295297 19.7788 0.306859 19.9117 0.343768 20.0385C0.380677 20.1654 0.44221 20.2837 0.524854 20.3868C0.691762 20.5949 0.934526 20.7283 1.19974 20.7574C1.46496 20.7866 1.7309 20.7092 1.93907 20.5423C2.14723 20.3754 2.28057 20.1327 2.30974 19.8674C2.52933 17.9126 3.46143 16.1073 4.92796 14.7962C6.39449 13.4852 8.29264 12.7605 10.2597 12.7605C12.2268 12.7605 14.125 13.4852 15.5915 14.7962C17.0581 16.1073 17.9902 17.9126 18.2097 19.8674C18.2369 20.1132 18.3542 20.3401 18.5388 20.5045C18.7235 20.6688 18.9625 20.7589 19.2097 20.7574H19.3197C19.5819 20.7273 19.8215 20.5947 19.9863 20.3887C20.1511 20.1827 20.2279 19.9198 20.1997 19.6574C19.9992 17.8537 19.3116 16.1384 18.2106 14.6957C17.1096 13.2529 15.6367 12.1369 13.9497 11.4674ZM10.2397 10.7574C9.44862 10.7574 8.67526 10.5229 8.01746 10.0833C7.35967 9.6438 6.84697 9.01909 6.54422 8.28818C6.24147 7.55728 6.16226 6.75301 6.3166 5.97709C6.47094 5.20116 6.85191 4.48843 7.41132 3.92902C7.97073 3.36961 8.68346 2.98865 9.45938 2.83431C10.2353 2.67997 11.0396 2.75918 11.7705 3.06193C12.5014 3.36468 13.1261 3.87737 13.5656 4.53517C14.0051 5.19296 14.2397 5.96632 14.2397 6.75745C14.2397 7.81832 13.8183 8.83573 13.0682 9.58588C12.318 10.336 11.3006 10.7574 10.2397 10.7574Z" fill="#444444"/>
</svg>
