<svg width="21" height="21" viewBox="0 0 21 21" fill="none" xmlns="http://www.w3.org/2000/svg">
<path d="M10.157 5.50765H6.82365C6.60264 5.50765 6.39067 5.59545 6.23439 5.75173C6.07811 5.90801 5.99032 6.11997 5.99032 6.34098C5.99032 6.562 6.07811 6.77396 6.23439 6.93024C6.39067 7.08652 6.60264 7.17432 6.82365 7.17432H10.157C10.378 7.17432 10.59 7.08652 10.7462 6.93024C10.9025 6.77396 10.9903 6.562 10.9903 6.34098C10.9903 6.11997 10.9025 5.90801 10.7462 5.75173C10.59 5.59545 10.378 5.50765 10.157 5.50765ZM16.8236 2.17432H5.15698C4.49394 2.17432 3.85806 2.43771 3.38922 2.90655C2.92037 3.37539 2.65698 4.01128 2.65698 4.67432V16.341C2.65698 17.004 2.92037 17.6399 3.38922 18.1088C3.85806 18.5776 4.49394 18.841 5.15698 18.841H16.8236C17.4867 18.841 18.1226 18.5776 18.5914 18.1088C19.0603 17.6399 19.3237 17.004 19.3237 16.341V4.67432C19.3237 4.01128 19.0603 3.37539 18.5914 2.90655C18.1226 2.43771 17.4867 2.17432 16.8236 2.17432ZM4.32365 15.9993V4.67432C4.32365 4.4533 4.41145 4.24134 4.56773 4.08506C4.72401 3.92878 4.93597 3.84098 5.15698 3.84098H16.482L4.32365 15.9993ZM17.657 16.341C17.657 16.562 17.5692 16.774 17.4129 16.9302C17.2566 17.0865 17.0447 17.1743 16.8236 17.1743H5.49865L17.657 5.01598V16.341ZM11.8236 14.6743H12.657V15.5077C12.657 15.7287 12.7448 15.9406 12.9011 16.0969C13.0573 16.2532 13.2693 16.341 13.4903 16.341C13.7113 16.341 13.9233 16.2532 14.0796 16.0969C14.2359 15.9406 14.3236 15.7287 14.3236 15.5077V14.6743H15.157C15.378 14.6743 15.59 14.5865 15.7462 14.4302C15.9025 14.274 15.9903 14.062 15.9903 13.841C15.9903 13.62 15.9025 13.408 15.7462 13.2517C15.59 13.0954 15.378 13.0077 15.157 13.0077H14.3236V12.1743C14.3236 11.9533 14.2359 11.7413 14.0796 11.5851C13.9233 11.4288 13.7113 11.341 13.4903 11.341C13.2693 11.341 13.0573 11.4288 12.9011 11.5851C12.7448 11.7413 12.657 11.9533 12.657 12.1743V13.0077H11.8236C11.6026 13.0077 11.3907 13.0954 11.2344 13.2517C11.0781 13.408 10.9903 13.62 10.9903 13.841C10.9903 14.062 11.0781 14.274 11.2344 14.4302C11.3907 14.5865 11.6026 14.6743 11.8236 14.6743Z" fill="#444444"/>
</svg>
