<svg width="17" height="17" viewBox="0 0 17 17" fill="none" xmlns="http://www.w3.org/2000/svg">
<path d="M14.5789 7.8501H9.32886V2.6001C9.32886 2.36803 9.23667 2.14547 9.07258 1.98138C8.90848 1.81729 8.68592 1.7251 8.45386 1.7251C8.22179 1.7251 7.99923 1.81729 7.83514 1.98138C7.67104 2.14547 7.57886 2.36803 7.57886 2.6001V7.8501H2.32886C2.09679 7.8501 1.87423 7.94229 1.71014 8.10638C1.54604 8.27047 1.45386 8.49303 1.45386 8.7251C1.45386 8.95716 1.54604 9.17972 1.71014 9.34382C1.87423 9.50791 2.09679 9.6001 2.32886 9.6001H7.57886V14.8501C7.57886 15.0822 7.67104 15.3047 7.83514 15.4688C7.99923 15.6329 8.22179 15.7251 8.45386 15.7251C8.68592 15.7251 8.90848 15.6329 9.07258 15.4688C9.23667 15.3047 9.32886 15.0822 9.32886 14.8501V9.6001H14.5789C14.8109 9.6001 15.0335 9.50791 15.1976 9.34382C15.3617 9.17972 15.4539 8.95716 15.4539 8.7251C15.4539 8.49303 15.3617 8.27047 15.1976 8.10638C15.0335 7.94229 14.8109 7.8501 14.5789 7.8501Z" fill="white" stroke="white" stroke-width="1.5"/>
</svg>
