<svg width="16" height="17" viewBox="0 0 16 17" fill="none" xmlns="http://www.w3.org/2000/svg">
<path fill-rule="evenodd" clip-rule="evenodd" d="M5.93567 0.535157H10.0645C10.4478 0.535144 10.7786 0.535133 11.051 0.55739C11.3385 0.580882 11.6245 0.632748 11.8997 0.772962C12.3102 0.98214 12.644 1.31592 12.8532 1.72645C12.9934 2.00164 13.0453 2.28761 13.0687 2.57514C13.091 2.84755 13.091 3.17828 13.091 3.56165V4.19126C13.1541 4.19474 13.2151 4.19884 13.2741 4.20366C13.6829 4.23706 14.0587 4.30875 14.4117 4.48859C14.9591 4.7675 15.4041 5.21253 15.683 5.75991C15.8628 6.11288 15.9345 6.48867 15.9679 6.89747C16.0001 7.29106 16.0001 7.77422 16.0001 8.35965V9.9897C16.0001 10.0235 16.0001 10.0569 16.0001 10.0898C16.0004 10.6682 16.0007 11.0978 15.9009 11.4699C15.632 12.4738 14.8478 13.2579 13.8439 13.5269C13.6203 13.5869 13.3759 13.6107 13.091 13.6201C13.0908 13.9564 13.0888 14.2495 13.0687 14.4952C13.0453 14.7827 12.9934 15.0687 12.8532 15.3439C12.644 15.7544 12.3102 16.0882 11.8997 16.2974C11.6245 16.4376 11.3385 16.4894 11.051 16.5129C10.7786 16.5352 10.4479 16.5352 10.0645 16.5352H5.93566C5.55228 16.5352 5.22155 16.5352 4.94914 16.5129C4.66162 16.4894 4.37564 16.4376 4.10045 16.2974C3.68992 16.0882 3.35614 15.7544 3.14696 15.3439C3.00675 15.0687 2.95488 14.7827 2.93139 14.4952C2.91132 14.2495 2.90936 13.9564 2.90918 13.6201C2.62422 13.6107 2.37985 13.5869 2.15623 13.5269C1.15233 13.2579 0.36819 12.4738 0.0991951 11.4699C-0.000511505 11.0978 -0.000278899 10.6682 3.43394e-05 10.0898C5.21124e-05 10.0569 7.01456e-05 10.0235 7.01456e-05 9.9897L6.97988e-05 8.35967C6.05221e-05 7.77423 5.28937e-05 7.29106 0.032211 6.89747C0.0656111 6.48867 0.137294 6.11288 0.317142 5.75991C0.596046 5.21253 1.04108 4.7675 1.58846 4.48859C1.94143 4.30875 2.31722 4.23706 2.72601 4.20366C2.78504 4.19884 2.84607 4.19474 2.90916 4.19126L2.90916 3.56167C2.90915 3.17829 2.90914 2.84755 2.93139 2.57514C2.95488 2.28761 3.00675 2.00164 3.14696 1.72645C3.35614 1.31592 3.68992 0.98214 4.10045 0.772961C4.37564 0.632748 4.66162 0.580882 4.94914 0.55739C5.22156 0.535133 5.55229 0.535144 5.93567 0.535157ZM4.36371 4.17152H11.6364V3.5897C11.6364 3.17039 11.6359 2.89965 11.619 2.69358C11.6029 2.49601 11.5755 2.42276 11.5572 2.3868C11.4874 2.24996 11.3762 2.1387 11.2393 2.06897C11.2034 2.05065 11.1301 2.02325 10.9326 2.0071C10.7265 1.99027 10.4557 1.9897 10.0364 1.9897H5.96371C5.54439 1.9897 5.27365 1.99027 5.06759 2.0071C4.87001 2.02325 4.79676 2.05065 4.7608 2.06897C4.62396 2.1387 4.5127 2.24996 4.44297 2.3868C4.42465 2.42276 4.39725 2.49601 4.38111 2.69358C4.36427 2.89965 4.36371 3.17039 4.36371 3.5897V4.17152ZM4.36371 13.4806C4.36371 13.8999 4.36427 14.1707 4.38111 14.3767C4.39725 14.5743 4.42465 14.6476 4.44297 14.6835C4.5127 14.8204 4.62396 14.9316 4.7608 15.0013C4.79676 15.0197 4.87001 15.0471 5.06759 15.0632C5.27365 15.08 5.54439 15.0806 5.96371 15.0806H10.0364C10.4557 15.0806 10.7265 15.08 10.9326 15.0632C11.1301 15.0471 11.2034 15.0197 11.2393 15.0013C11.3762 14.9316 11.4874 14.8204 11.5572 14.6835C11.5755 14.6476 11.6029 14.5743 11.619 14.3767C11.6359 14.1707 11.6364 13.8999 11.6364 13.4806V12.317C11.6364 11.8977 11.6359 11.6269 11.619 11.4209C11.6029 11.2233 11.5755 11.15 11.5572 11.1141C11.4874 10.9772 11.3762 10.866 11.2393 10.7962C11.2034 10.7779 11.1301 10.7505 10.9326 10.7344C10.7265 10.7175 10.4557 10.717 10.0364 10.717H5.96371C5.54439 10.717 5.27365 10.7175 5.06759 10.7344C4.87001 10.7505 4.79676 10.7779 4.7608 10.7962C4.62396 10.866 4.5127 10.9772 4.44297 11.1141C4.42465 11.15 4.39725 11.2233 4.38111 11.4209C4.36427 11.6269 4.36371 11.8977 4.36371 12.317V13.4806ZM13.091 12.1643C13.0907 11.8335 13.0886 11.5449 13.0687 11.3024C13.0453 11.0149 12.9934 10.7289 12.8532 10.4537C12.644 10.0432 12.3102 9.70941 11.8997 9.50023C11.6245 9.36002 11.3385 9.30815 11.051 9.28466C10.7786 9.26241 10.4478 9.26242 10.0645 9.26243H5.93569C5.5523 9.26242 5.22156 9.26241 4.94914 9.28466C4.66162 9.30815 4.37564 9.36002 4.10045 9.50023C3.68992 9.70941 3.35614 10.0432 3.14696 10.4537C3.00675 10.7289 2.95488 11.0149 2.93139 11.3024C2.91158 11.5449 2.90941 11.8335 2.90919 12.1643C2.72184 12.1577 2.61909 12.1451 2.5327 12.122C2.03074 11.9875 1.63868 11.5954 1.50418 11.0934C1.46086 10.9318 1.45462 10.7129 1.45462 9.9897V8.3897C1.45462 7.76674 1.45518 7.34325 1.48193 7.01591C1.50798 6.69706 1.5552 6.53401 1.61315 6.42026C1.7526 6.14657 1.97512 5.92405 2.24881 5.7846C2.36256 5.72665 2.52561 5.67943 2.84446 5.65338C3.1718 5.62663 3.59528 5.62607 4.21825 5.62607H11.7819C12.4049 5.62607 12.8283 5.62663 13.1557 5.65338C13.4745 5.67943 13.6376 5.72665 13.7513 5.7846C14.025 5.92405 14.2475 6.14657 14.387 6.42026C14.4449 6.53401 14.4922 6.69706 14.5182 7.01591C14.545 7.34325 14.5455 7.76674 14.5455 8.3897V9.9897C14.5455 10.7129 14.5393 10.9318 14.496 11.0934C14.3615 11.5954 13.9694 11.9875 13.4674 12.122C13.381 12.1451 13.2783 12.1577 13.091 12.1643ZM9.45461 7.44425C9.45461 7.04259 9.78023 6.71698 10.1819 6.71698H12.3637C12.7654 6.71698 13.091 7.04259 13.091 7.44425C13.091 7.84591 12.7654 8.17152 12.3637 8.17152H10.1819C9.78023 8.17152 9.45461 7.84591 9.45461 7.44425Z" fill="#444444"/>
</svg>
