<svg width="17" height="16" viewBox="0 0 17 16" fill="none" xmlns="http://www.w3.org/2000/svg">
<path d="M13.2387 4.42273C12.8433 4.16093 12.3113 4.26955 12.0495 4.66502L9.57922 8.39418L8.42065 6.62012C8.2619 6.37782 7.99175 6.23021 7.70211 6.23021H7.69654C7.40411 6.23021 7.13396 6.3806 6.978 6.62847L4.48261 10.5498C4.22917 10.9508 4.34615 11.48 4.74719 11.7362C4.88923 11.8281 5.05076 11.8699 5.20672 11.8699C5.49079 11.8699 5.7693 11.7279 5.93361 11.4716L7.71325 8.67547L8.85511 10.4273C9.01386 10.6695 9.28122 10.8172 9.57086 10.8172C9.85772 10.8199 10.1307 10.6723 10.2894 10.4328L13.4838 5.61193C13.7456 5.21646 13.637 4.68452 13.2415 4.42273H13.2387Z" fill="#444444"/>
<path d="M16.9958 3.90183H16.9874V2.72933C16.9874 1.22263 15.762 0 14.2581 0H3.71395C2.21003 0 0.984619 1.22541 0.984619 2.72933V6.79547V13.2707C0.984619 14.7746 2.21003 16 3.71395 16H14.2553C15.7592 16 16.9846 14.7746 16.9846 13.2707V7.33855H16.993V3.90183H16.9958ZM15.269 13.2707C15.269 13.8277 14.8151 14.2816 14.2581 14.2816H3.71395C3.15694 14.2816 2.70298 13.8277 2.70298 13.2707V2.72933C2.70298 2.17232 3.15694 1.71836 3.71395 1.71836H14.2553C14.8123 1.71836 15.2663 2.17232 15.2663 2.72933V4.33908C15.2663 4.38364 15.269 4.4282 15.2774 4.46997V6.60331C15.2718 6.64508 15.269 6.68964 15.269 6.73142V13.2707Z" fill="#444444"/>
</svg>
