<svg width="18" height="17" viewBox="0 0 18 17" fill="none" xmlns="http://www.w3.org/2000/svg">
<path d="M8.15698 3.50765H4.82365C4.60264 3.50765 4.39067 3.59545 4.23439 3.75173C4.07811 3.90801 3.99032 4.11997 3.99032 4.34098C3.99032 4.562 4.07811 4.77396 4.23439 4.93024C4.39067 5.08652 4.60264 5.17432 4.82365 5.17432H8.15698C8.378 5.17432 8.58996 5.08652 8.74624 4.93024C8.90252 4.77396 8.99032 4.562 8.99032 4.34098C8.99032 4.11997 8.90252 3.90801 8.74624 3.75173C8.58996 3.59545 8.378 3.50765 8.15698 3.50765ZM14.8236 0.174316H3.15698C2.49394 0.174316 1.85806 0.437709 1.38922 0.90655C0.920375 1.37539 0.656982 2.01128 0.656982 2.67432V14.341C0.656982 15.004 0.920375 15.6399 1.38922 16.1088C1.85806 16.5776 2.49394 16.841 3.15698 16.841H14.8236C15.4867 16.841 16.1226 16.5776 16.5914 16.1088C17.0603 15.6399 17.3236 15.004 17.3236 14.341V2.67432C17.3236 2.01128 17.0603 1.37539 16.5914 0.90655C16.1226 0.437709 15.4867 0.174316 14.8236 0.174316ZM2.32365 13.9993V2.67432C2.32365 2.4533 2.41145 2.24134 2.56773 2.08506C2.72401 1.92878 2.93597 1.84098 3.15698 1.84098H14.482L2.32365 13.9993ZM15.657 14.341C15.657 14.562 15.5692 14.774 15.4129 14.9302C15.2566 15.0865 15.0447 15.1743 14.8236 15.1743H3.49865L15.657 3.01598V14.341ZM9.82365 12.6743H10.657V13.5077C10.657 13.7287 10.7448 13.9406 10.9011 14.0969C11.0573 14.2532 11.2693 14.341 11.4903 14.341C11.7113 14.341 11.9233 14.2532 12.0796 14.0969C12.2359 13.9406 12.3236 13.7287 12.3236 13.5077V12.6743H13.157C13.378 12.6743 13.59 12.5865 13.7462 12.4302C13.9025 12.274 13.9903 12.062 13.9903 11.841C13.9903 11.62 13.9025 11.408 13.7462 11.2517C13.59 11.0954 13.378 11.0077 13.157 11.0077H12.3236V10.1743C12.3236 9.9533 12.2359 9.74134 12.0796 9.58506C11.9233 9.42878 11.7113 9.34098 11.4903 9.34098C11.2693 9.34098 11.0573 9.42878 10.9011 9.58506C10.7448 9.74134 10.657 9.9533 10.657 10.1743V11.0077H9.82365C9.60264 11.0077 9.39067 11.0954 9.23439 11.2517C9.07811 11.408 8.99032 11.62 8.99032 11.841C8.99032 12.062 9.07811 12.274 9.23439 12.4302C9.39067 12.5865 9.60264 12.6743 9.82365 12.6743V12.6743Z" fill="#444444"/>
</svg>
