<svg width="18" height="17" viewBox="0 0 18 17" fill="none" xmlns="http://www.w3.org/2000/svg">
<path d="M14.0913 16.25C13.9795 16.25 13.8993 16.2443 13.8678 16.2414C13.3809 16.2042 13.0171 15.7803 13.0544 15.2933C13.0916 14.8093 13.5127 14.4455 13.9967 14.4799C14.2488 14.497 14.9935 14.4512 15.406 14.0617C15.6408 13.8411 15.7554 13.5146 15.7554 13.0649V2.66175C15.7554 2.17481 16.1507 1.77954 16.6376 1.77954C17.1246 1.77954 17.5198 2.17481 17.5198 2.66175V13.0678C17.5198 14.2622 17.0186 14.9754 16.6004 15.3649C15.744 16.1583 14.5839 16.25 14.0884 16.25H14.0913Z" fill="#444444"/>
<path d="M13.9338 16.2471H4.13784C2.63122 16.2471 1.76047 15.5826 1.29359 15.0269C0.752233 14.3796 0.454346 13.5232 0.454346 12.6095V1.13221C0.45721 0.645274 0.852484 0.25 1.33942 0.25H12.1006C12.5875 0.25 12.9828 0.645274 12.9828 1.13221V12.3803C12.9828 14.3452 13.8364 14.4713 13.9509 14.4799C14.4293 14.4885 14.816 14.878 14.8188 15.3563C14.8217 15.8404 14.435 16.2385 13.9509 16.2471C13.9481 16.2471 13.9424 16.2471 13.9366 16.2471H13.9338ZM2.22449 2.01728V12.6095C2.22449 13.0477 2.36197 14.4799 4.1407 14.4799H11.5793C11.3616 13.9528 11.2184 13.2683 11.2184 12.3803V2.01728H2.22449Z" fill="#444444"/>
<path d="M3.53631 11.0255C3.37305 11.0255 3.20978 10.9796 3.0637 10.888C2.65124 10.6273 2.53094 10.0803 2.79159 9.6678L4.83098 6.65168C4.99138 6.39963 5.27208 6.24495 5.56997 6.24209H5.5757C5.87359 6.24209 6.15142 6.3939 6.31469 6.64309L7.50624 8.46765L9.19618 5.84395C9.46542 5.43722 10.0125 5.32551 10.4192 5.59476C10.826 5.864 10.9377 6.41108 10.6684 6.81781L8.23664 10.5615C8.07337 10.8107 7.79267 10.9596 7.49765 10.9567C7.19976 10.9567 6.92192 10.8049 6.76152 10.5557L5.58716 8.75408L4.2839 10.613C4.1149 10.8765 3.82847 11.0226 3.53631 11.0226V11.0255Z" fill="#444444"/>
</svg>
