<svg width="16" height="17" viewBox="0 0 16 17" fill="none" xmlns="http://www.w3.org/2000/svg">
<path d="M11.7144 6.86954C11.3901 6.54522 10.8634 6.54522 10.5391 6.86954L8.82043 8.58818C8.82043 8.58818 8.82043 8.57432 8.82043 8.56601V1.0816C8.82043 0.621448 8.44899 0.25 7.98883 0.25C7.52868 0.25 7.15723 0.621448 7.15723 1.0816V8.56601C7.15723 8.56601 7.15723 8.57987 7.15723 8.58818L5.43859 6.86954C5.11427 6.54522 4.58759 6.54522 4.26326 6.86954C3.93894 7.19387 3.93894 7.72055 4.26326 8.04487L7.3984 11.18C7.56195 11.3436 7.77262 11.4239 7.98606 11.4239C8.19951 11.4239 8.41295 11.3436 8.57373 11.18L11.7089 8.04487C12.0332 7.72055 12.0332 7.19387 11.7089 6.86954H11.7144ZM7.96943 9.39484C7.96943 9.39484 7.98329 9.39484 7.99161 9.39484C7.99992 9.39484 8.00547 9.39484 8.01378 9.39484L7.99161 9.41701L7.96943 9.39484Z" fill="#444444"/>
<path d="M15.1073 0.322021H12.7788C12.3131 0.322021 11.9333 0.701786 11.9333 1.16748C11.9333 1.63318 12.3131 2.01294 12.7788 2.01294H14.2618V10.329L10.0345 14.5563H1.71851V2.01294H3.15441C3.6201 2.01294 3.99987 1.63318 3.99987 1.16748C3.99987 0.701786 3.6201 0.322021 3.15441 0.322021H0.873049C0.407352 0.322021 0.0275879 0.701786 0.0275879 1.16748V15.4045C0.0275879 15.8702 0.407352 16.2499 0.873049 16.2499H10.3838C10.6083 16.2499 10.8218 16.1612 10.9825 16.0032L15.706 11.2797C15.864 11.1217 15.9527 10.9055 15.9527 10.681V1.16748C15.9527 0.701786 15.573 0.322021 15.1073 0.322021Z" fill="#444444"/>
</svg>
