<svg width="17" height="17" viewBox="0 0 17 17" fill="none" xmlns="http://www.w3.org/2000/svg">
<path d="M16.1408 0.409668H1.83967C1.369 0.409668 0.990234 0.791217 0.990234 1.2591V15.5602C0.990234 16.0281 1.369 16.4097 1.83967 16.4097H11.3951C11.6207 16.4097 11.8351 16.3205 11.9967 16.1618L16.7424 11.4161C16.9011 11.2574 16.9902 11.0401 16.9902 10.8145V1.2591C16.9902 0.791217 16.6087 0.409668 16.1408 0.409668ZM15.2914 10.4636L11.0442 14.7108H2.6891V2.10854H15.2914V10.4636Z" fill="#444444"/>
<path d="M7.24637 14.3722L4.55837 18.6562H6.97037L8.53037 16.1842L10.0424 18.6562H12.7544L10.0664 14.3722L12.6464 10.2562H10.2224L8.78237 12.5602L7.36637 10.2562H4.66637L7.24637 14.3722ZM5.13437 32.6562H10.4144V30.7842H7.34237V24.2562H5.13437V32.6562ZM6.94637 43.9322L4.79837 43.8842C4.79837 44.4242 4.95437 44.9042 5.26637 45.3362C5.57837 45.7682 5.99837 46.1162 6.55037 46.3562C7.09037 46.6082 7.70237 46.7283 8.37437 46.7283C9.02237 46.7283 9.59837 46.6082 10.1264 46.3682C10.6544 46.1282 11.0624 45.8042 11.3624 45.3722C11.6504 44.9522 11.8064 44.4842 11.8064 43.9562C11.8064 43.4282 11.6864 42.9962 11.4584 42.6722C11.2304 42.3602 10.9304 42.1202 10.5584 41.9522C10.1744 41.7962 9.70637 41.6642 9.14237 41.5442C8.57837 41.4362 8.17037 41.3522 7.93037 41.2802C7.67837 41.2082 7.49837 41.1362 7.37837 41.0402C7.25837 40.9442 7.21037 40.8122 7.21037 40.6442C7.21037 40.4042 7.30637 40.2122 7.49837 40.0802C7.69037 39.9602 7.95437 39.8882 8.26637 39.8882C8.62637 39.8882 8.90237 39.9842 9.11837 40.1642C9.32237 40.3442 9.44237 40.5842 9.46637 40.8722H11.6144C11.6144 40.3682 11.4584 39.9122 11.1704 39.5042C10.8824 39.0962 10.4744 38.7722 9.97037 38.5322C9.46637 38.3042 8.89037 38.1842 8.26637 38.1842C7.64237 38.1842 7.09037 38.3042 6.58637 38.5322C6.08237 38.7602 5.69837 39.0722 5.41037 39.4682C5.12237 39.8763 4.99037 40.3203 4.99037 40.8122C4.99037 41.3642 5.09837 41.8082 5.32637 42.1442C5.54237 42.4802 5.84237 42.7202 6.21437 42.8882C6.57437 43.0562 7.04237 43.1882 7.60637 43.3082C8.18237 43.4282 8.59037 43.5242 8.84237 43.5962C9.09437 43.6682 9.28637 43.7402 9.40637 43.8362C9.52637 43.9322 9.58637 44.0642 9.58637 44.2322C9.58637 44.4962 9.47837 44.7002 9.26237 44.8322C9.04637 44.9762 8.75837 45.0362 8.41037 45.0362C7.96637 45.0362 7.61837 44.9402 7.36637 44.7362C7.10237 44.5322 6.97037 44.2682 6.94637 43.9322Z" fill="#444444"/>
</svg>
