<svg width="17" height="18" viewBox="0 0 17 18" fill="none" xmlns="http://www.w3.org/2000/svg">
<path d="M2.6665 13.6878H6.19984C6.30951 13.6884 6.41823 13.6674 6.51976 13.6259C6.62129 13.5844 6.71364 13.5233 6.7915 13.4461L12.5582 7.67111L14.9248 5.35444C15.0029 5.27697 15.0649 5.1848 15.1072 5.08326C15.1496 4.98171 15.1713 4.87278 15.1713 4.76277C15.1713 4.65276 15.1496 4.54384 15.1072 4.44229C15.0649 4.34074 15.0029 4.24858 14.9248 4.17111L11.3915 0.596108C11.314 0.518001 11.2219 0.456006 11.1203 0.413698C11.0188 0.371391 10.9098 0.349609 10.7998 0.349609C10.6898 0.349609 10.5809 0.371391 10.4794 0.413698C10.3778 0.456006 10.2856 0.518001 10.2082 0.596108L7.85817 2.95444L2.07484 8.72944C1.9976 8.80731 1.9365 8.89966 1.89503 9.00119C1.85356 9.10272 1.83254 9.21144 1.83317 9.32111V12.8544C1.83317 13.0755 1.92097 13.2874 2.07725 13.4437C2.23353 13.6 2.44549 13.6878 2.6665 13.6878ZM10.7998 2.36277L13.1582 4.72111L11.9748 5.90444L9.6165 3.54611L10.7998 2.36277ZM3.49984 9.66278L8.4415 4.72111L10.7998 7.07944L5.85817 12.0211H3.49984V9.66278ZM15.9998 15.3544H0.999837C0.778823 15.3544 0.566862 15.4422 0.410582 15.5985C0.254301 15.7548 0.166504 15.9668 0.166504 16.1878C0.166504 16.4088 0.254301 16.6208 0.410582 16.777C0.566862 16.9333 0.778823 17.0211 0.999837 17.0211H15.9998C16.2209 17.0211 16.4328 16.9333 16.5891 16.777C16.7454 16.6208 16.8332 16.4088 16.8332 16.1878C16.8332 15.9668 16.7454 15.7548 16.5891 15.5985C16.4328 15.4422 16.2209 15.3544 15.9998 15.3544Z" fill="#444444"/>
</svg>
