<svg width="21" height="21" viewBox="0 0 21 21" fill="none" xmlns="http://www.w3.org/2000/svg">
<path d="M9.32354 11.6366H12.6569C12.8779 11.6366 13.0899 11.5488 13.2461 11.3925C13.4024 11.2362 13.4902 11.0242 13.4902 10.8032C13.4902 10.5822 13.4024 10.3702 13.2461 10.214C13.0899 10.0577 12.8779 9.96989 12.6569 9.96989H9.32354C9.10253 9.96989 8.89057 10.0577 8.73429 10.214C8.57801 10.3702 8.49021 10.5822 8.49021 10.8032C8.49021 11.0242 8.57801 11.2362 8.73429 11.3925C8.89057 11.5488 9.10253 11.6366 9.32354 11.6366ZM16.8235 3.30322H5.15688C4.57059 3.30777 4.00456 3.51823 3.55772 3.89782C3.11088 4.2774 2.81166 4.80196 2.71238 5.3798C2.6131 5.95763 2.72006 6.55198 3.01457 7.05895C3.30908 7.56591 3.7724 7.95324 4.32355 8.15322V15.8032C4.32355 16.4663 4.58694 17.1021 5.05578 17.571C5.52462 18.0398 6.1605 18.3032 6.82355 18.3032H15.1569C15.8199 18.3032 16.4558 18.0398 16.9246 17.571C17.3935 17.1021 17.6569 16.4663 17.6569 15.8032V8.15322C18.208 7.95324 18.6713 7.56591 18.9659 7.05895C19.2604 6.55198 19.3673 5.95763 19.268 5.3798C19.1688 4.80196 18.8695 4.2774 18.4227 3.89782C17.9759 3.51823 17.4098 3.30777 16.8235 3.30322ZM15.9902 15.8032C15.9902 16.0242 15.9024 16.2362 15.7461 16.3925C15.5899 16.5488 15.3779 16.6366 15.1569 16.6366H6.82355C6.60253 16.6366 6.39057 16.5488 6.23429 16.3925C6.07801 16.2362 5.99021 16.0242 5.99021 15.8032V8.30322H15.9902V15.8032ZM16.8235 6.63656H5.15688C4.93587 6.63656 4.7239 6.54876 4.56762 6.39248C4.41134 6.2362 4.32355 6.02424 4.32355 5.80322C4.32355 5.58221 4.41134 5.37025 4.56762 5.21397C4.7239 5.05769 4.93587 4.96989 5.15688 4.96989H16.8235C17.0446 4.96989 17.2565 5.05769 17.4128 5.21397C17.5691 5.37025 17.6569 5.58221 17.6569 5.80322C17.6569 6.02424 17.5691 6.2362 17.4128 6.39248C17.2565 6.54876 17.0446 6.63656 16.8235 6.63656Z" fill="#444444"/>
</svg>
