<svg width="18" height="17" viewBox="0 0 18 17" fill="none" xmlns="http://www.w3.org/2000/svg">
<path d="M17.1483 3.9727H17.138V2.79994C17.138 1.29481 15.8906 0.0708008 14.3562 0.0708008H3.61388C2.07947 0.0708008 0.832031 1.29481 0.832031 2.79994V6.86582C0.832031 6.86582 0.832031 6.86729 0.832031 6.86875V13.3402C0.832031 14.8453 2.07947 16.0693 3.61388 16.0693H14.3562C15.8906 16.0693 17.138 14.8453 17.138 13.3402V7.41048H17.1483V3.9727ZM15.3884 13.3402C15.3884 13.898 14.9257 14.3519 14.3577 14.3519H3.61388C3.04579 14.3519 2.58167 13.898 2.58167 13.3402V6.86875C2.58167 6.86875 2.58167 6.86436 2.58167 6.86143V2.79994C2.58167 2.2421 3.04433 1.78822 3.61388 1.78822H14.3562C14.9257 1.78822 15.3869 2.2421 15.3869 2.79994V4.40901C15.3869 4.45294 15.3899 4.49686 15.3972 4.53932V6.67256C15.3913 6.71502 15.3869 6.75748 15.3869 6.8014V13.3387L15.3884 13.3402Z" fill="black"/>
<path d="M5.03698 5.49974C5.73562 5.49974 6.30199 4.93338 6.30199 4.23473C6.30199 3.53609 5.73562 2.96973 5.03698 2.96973C4.33834 2.96973 3.77197 3.53609 3.77197 4.23473C3.77197 4.93338 4.33834 5.49974 5.03698 5.49974Z" fill="black"/>
<path d="M8.9901 5.49974C9.68875 5.49974 10.2551 4.93338 10.2551 4.23473C10.2551 3.53609 9.68875 2.96973 8.9901 2.96973C8.29146 2.96973 7.7251 3.53609 7.7251 4.23473C7.7251 4.93338 8.29146 5.49974 8.9901 5.49974Z" fill="black"/>
<path d="M12.9432 5.49974C13.6419 5.49974 14.2082 4.93338 14.2082 4.23473C14.2082 3.53609 13.6419 2.96973 12.9432 2.96973C12.2446 2.96973 11.6782 3.53609 11.6782 4.23473C11.6782 4.93338 12.2446 5.49974 12.9432 5.49974Z" fill="black"/>
<path d="M5.03698 9.33592C5.73562 9.33592 6.30199 8.76956 6.30199 8.07092C6.30199 7.37227 5.73562 6.80591 5.03698 6.80591C4.33834 6.80591 3.77197 7.37227 3.77197 8.07092C3.77197 8.76956 4.33834 9.33592 5.03698 9.33592Z" fill="black"/>
<path d="M8.9901 9.33592C9.68875 9.33592 10.2551 8.76956 10.2551 8.07092C10.2551 7.37227 9.68875 6.80591 8.9901 6.80591C8.29146 6.80591 7.7251 7.37227 7.7251 8.07092C7.7251 8.76956 8.29146 9.33592 8.9901 9.33592Z" fill="black"/>
<path d="M12.9432 9.33592C13.6419 9.33592 14.2082 8.76956 14.2082 8.07092C14.2082 7.37227 13.6419 6.80591 12.9432 6.80591C12.2446 6.80591 11.6782 7.37227 11.6782 8.07092C11.6782 8.76956 12.2446 9.33592 12.9432 9.33592Z" fill="black"/>
<path d="M5.03698 13.1719C5.73562 13.1719 6.30199 12.6055 6.30199 11.9069C6.30199 11.2082 5.73562 10.6418 5.03698 10.6418C4.33834 10.6418 3.77197 11.2082 3.77197 11.9069C3.77197 12.6055 4.33834 13.1719 5.03698 13.1719Z" fill="black"/>
<path d="M8.9901 13.1719C9.68875 13.1719 10.2551 12.6055 10.2551 11.9069C10.2551 11.2082 9.68875 10.6418 8.9901 10.6418C8.29146 10.6418 7.7251 11.2082 7.7251 11.9069C7.7251 12.6055 8.29146 13.1719 8.9901 13.1719Z" fill="black"/>
<path d="M12.9432 13.1719C13.6419 13.1719 14.2082 12.6055 14.2082 11.9069C14.2082 11.2082 13.6419 10.6418 12.9432 10.6418C12.2446 10.6418 11.6782 11.2082 11.6782 11.9069C11.6782 12.6055 12.2446 13.1719 12.9432 13.1719Z" fill="black"/>
</svg>
